<?xml version="1.0" encoding="UTF-8"?>
<svg version="1.1" xmlns="http://www.w3.org/2000/svg" width="512" height="512">
<path d="M0 0 C1.09231682 -0.01043099 2.18463364 -0.02086198 3.31005096 -0.03160906 C4.50964699 -0.02268617 5.70924301 -0.01376328 6.94519043 -0.00457001 C8.2198542 -0.01080997 9.49451797 -0.01704993 10.80780792 -0.02347898 C14.3484819 -0.04020703 17.88872569 -0.03191053 21.4294014 -0.01953411 C25.24678745 -0.0105 29.06409848 -0.02444516 32.88146973 -0.0354538 C40.36070617 -0.05326121 47.83978225 -0.04938919 55.31902504 -0.03780323 C61.39633121 -0.0287779 67.47359237 -0.027541 73.55090332 -0.0318985 C74.41511918 -0.03251143 75.27933503 -0.03312436 76.16973925 -0.03375587 C77.9252542 -0.03503474 79.68076914 -0.03633159 81.43628407 -0.03764623 C97.90643425 -0.04905854 114.37649546 -0.03592814 130.84663105 -0.01444477 C144.98564854 0.00342681 159.12453468 0.00032289 173.2635498 -0.01811981 C189.67385777 -0.03951506 206.08408769 -0.04795984 222.49440765 -0.03567076 C224.24354552 -0.03439653 225.9926834 -0.03313905 227.74182129 -0.0318985 C229.0328107 -0.03097285 229.0328107 -0.03097285 230.3498807 -0.03002849 C236.42146455 -0.02657155 242.49299899 -0.03241134 248.5645752 -0.04181671 C255.96157473 -0.05302314 263.35840443 -0.05002534 270.75538445 -0.02869374 C274.5310997 -0.01816491 278.30653157 -0.01409235 282.08224487 -0.02729034 C286.1709225 -0.04136639 290.25888158 -0.02458551 294.34753418 -0.00457001 C296.14692822 -0.01795434 296.14692822 -0.01795434 297.98267365 -0.03160906 C299.62114887 -0.01596257 299.62114887 -0.01596257 301.29272461 0 C302.70886677 0.00097411 302.70886677 0.00097411 304.15361786 0.00196791 C307.39537338 0.65402247 308.59619264 1.96597204 310.6463623 4.50336456 C311.14972687 6.60858917 311.14972687 6.60858917 311.15429688 8.90570831 C311.17121582 10.21789337 311.17121582 10.21789337 311.18847656 11.55658722 C311.17633118 12.9843045 311.17633118 12.9843045 311.16394043 14.44086456 C311.17445435 15.95365997 311.17445435 15.95365997 311.18518066 17.49701691 C311.20279449 20.83274571 311.1911254 24.16762704 311.1776123 27.50336456 C311.18030623 29.81977247 311.18418782 32.13617928 311.18920898 34.45258331 C311.19510865 39.30816154 311.18652568 44.16344552 311.16784668 49.01898956 C311.14505727 55.24701102 311.15817778 61.47434302 311.18213654 67.70233917 C311.19658163 72.48583941 311.19199436 77.26917583 311.18162537 82.05268097 C311.17895453 84.34923128 311.18224031 86.64579639 311.19154358 88.94232941 C311.20168757 92.15057597 311.18623714 95.35770162 311.16394043 98.56586456 C311.17203735 99.51767609 311.18013428 100.46948761 311.18847656 101.45014191 C311.10586768 107.85705057 311.10586768 107.85705057 308.80303955 111.09607697 C305.80977875 113.04925694 303.68548371 112.95862132 300.1307373 112.89398956 C298.88034668 112.88109894 297.62995605 112.86820831 296.3416748 112.85492706 C295.03972168 112.82141144 293.73776855 112.78789581 292.3963623 112.75336456 C291.07894043 112.73531769 289.76151855 112.71727081 288.4041748 112.69867706 C285.15126074 112.65153338 281.89872014 112.57979073 278.6463623 112.50336456 C278.6463623 117.78336456 278.6463623 123.06336456 278.6463623 128.50336456 C280.62120605 128.45695831 282.5960498 128.41055206 284.6307373 128.36273956 C287.21926387 128.32522469 289.80780676 128.28882423 292.3963623 128.25336456 C293.69831543 128.21984894 295.00026855 128.18633331 296.3416748 128.15180206 C297.59206543 128.13891144 298.84245605 128.12602081 300.1307373 128.11273956 C301.28283691 128.0917923 302.43493652 128.07084503 303.62194824 128.049263 C306.6463623 128.50336456 306.6463623 128.50336456 309.02038574 129.96527863 C311.43791175 133.73894234 311.21990706 137.106393 311.1776123 141.50336456 C311.18143921 142.37605988 311.18526611 143.24875519 311.18920898 144.14789581 C311.19192721 145.99035548 311.18457225 147.8328538 311.16784668 149.67523956 C311.14643478 152.4938239 311.16765032 155.30985941 311.1932373 158.12836456 C311.19059401 159.92003685 311.185469 161.71170755 311.1776123 163.50336456 C311.18570923 164.34512238 311.19380615 165.18688019 311.20214844 166.05414581 C311.14314075 169.74014682 311.03923246 171.89010958 309.02038574 175.0414505 C305.88412947 176.97274447 303.8023477 176.96074612 300.1307373 176.89398956 C298.25515137 176.87465363 298.25515137 176.87465363 296.3416748 176.85492706 C294.38874512 176.80465363 294.38874512 176.80465363 292.3963623 176.75336456 C291.07894043 176.73531769 289.76151855 176.71727081 288.4041748 176.69867706 C285.15126074 176.65153338 281.89872014 176.57979073 278.6463623 176.50336456 C278.6463623 181.78336456 278.6463623 187.06336456 278.6463623 192.50336456 C280.09073669 192.49448212 281.53511108 192.48559967 283.02325439 192.47644806 C296.61967645 192.39544305 310.21607345 192.33519769 323.81267929 192.29611588 C330.8032373 192.27548839 337.79361521 192.24736455 344.78405762 192.20160675 C351.52731052 192.15748802 358.27033745 192.13424212 365.01374054 192.12385559 C367.58942871 192.11645154 370.16510636 192.10199365 372.74071503 192.08044434 C376.34197836 192.05150572 379.94246279 192.04740471 383.54382324 192.049263 C384.61412781 192.0348819 385.68443237 192.02050079 386.78717041 192.0056839 C393.96015598 192.04586746 393.96015598 192.04586746 397.30792236 194.27783966 C398.72157098 196.6284197 399.15140729 197.8498215 399.16394043 200.56586456 C399.17654907 201.35348175 399.18915771 202.14109894 399.20214844 202.95258331 C399.19000305 204.21522003 399.19000305 204.21522003 399.1776123 205.50336456 C399.18143921 206.37605988 399.18526611 207.24875519 399.18920898 208.14789581 C399.19192721 209.99035548 399.18457225 211.8328538 399.16784668 213.67523956 C399.14643478 216.4938239 399.16765032 219.30985941 399.1932373 222.12836456 C399.19059401 223.92003685 399.185469 225.71170755 399.1776123 227.50336456 C399.18570923 228.34512238 399.19380615 229.18688019 399.20214844 230.05414581 C399.18323547 231.23557159 399.18323547 231.23557159 399.16394043 232.44086456 C399.16075806 233.130513 399.15757568 233.82016144 399.15429688 234.53070831 C398.6463623 236.50336456 398.6463623 236.50336456 394.6463623 240.50336456 C390.6863623 240.50336456 386.7263623 240.50336456 382.6463623 240.50336456 C382.6463623 309.14336456 382.6463623 377.78336456 382.6463623 448.50336456 C386.6063623 448.50336456 390.5663623 448.50336456 394.6463623 448.50336456 C399.1475066 453.00450886 399.1475066 453.00450886 399.16394043 456.56586456 C399.18285339 457.74729034 399.18285339 457.74729034 399.20214844 458.95258331 C399.19000305 460.21522003 399.19000305 460.21522003 399.1776123 461.50336456 C399.18143921 462.37605988 399.18526611 463.24875519 399.18920898 464.14789581 C399.19192721 465.99035548 399.18457225 467.8328538 399.16784668 469.67523956 C399.14643478 472.4938239 399.16765032 475.30985941 399.1932373 478.12836456 C399.19059401 479.92003685 399.185469 481.71170755 399.1776123 483.50336456 C399.18570923 484.34512238 399.19380615 485.18688019 399.20214844 486.05414581 C399.18323547 487.23557159 399.18323547 487.23557159 399.16394043 488.44086456 C399.16075806 489.130513 399.15757568 489.82016144 399.15429688 490.53070831 C398.37970577 493.5389737 397.10300566 494.60907808 394.6463623 496.50336456 C391.81537309 496.89534081 389.37401515 497.04109004 386.54406738 497.00672913 C385.71672403 497.01254289 384.88938068 497.01835665 384.03696632 497.02434659 C381.24631715 497.0390212 378.45653728 497.02502677 375.66589355 497.01129913 C373.65238493 497.0159051 371.63887966 497.02225596 369.62538147 497.03020811 C364.07808243 497.04696633 358.53105727 497.0386256 352.98375702 497.02626324 C347.00685229 497.01724157 341.02999584 497.03116811 335.05310059 497.04218292 C324.01636162 497.05897273 312.97969834 497.05747391 301.94295883 497.04653705 C291.74789251 497.03648358 281.55285835 497.03384392 271.35778809 497.03862762 C270.68210631 497.03893316 270.00642454 497.03923871 269.31026757 497.0395535 C266.56760749 497.04079881 263.82494742 497.04207241 261.08228737 497.04339256 C235.34240205 497.05563465 209.60257263 497.04452507 183.86269593 497.02300497 C160.98326312 497.00402186 138.10391934 497.00572034 115.2244873 497.02484894 C89.53234999 497.04625721 63.84026206 497.05476653 38.14811707 497.04239988 C35.41039023 497.04111697 32.67266338 497.03986561 29.93493652 497.03862762 C29.26081478 497.03831132 28.58669304 497.03799501 27.89214337 497.03766911 C17.70229266 497.03311497 7.51247761 497.03844821 -2.67736816 497.04854584 C-14.26112453 497.05996737 -25.84479613 497.05677054 -37.42854309 497.03542286 C-43.3429054 497.02488385 -49.25708663 497.0208391 -55.17144775 497.03401947 C-60.57979407 497.04589021 -65.98779049 497.03946898 -71.39610481 497.01810926 C-73.35835484 497.01362055 -75.3206341 497.01595987 -77.28286552 497.02561241 C-79.93945166 497.03768373 -82.59482141 497.02539657 -85.25134277 497.00672913 C-86.40824647 497.02077612 -86.40824647 497.02077612 -87.58852196 497.0351069 C-91.10943342 496.98526934 -93.00066643 496.77553622 -95.82828522 494.59519529 C-97.50633663 492.29395701 -97.85824719 491.25128244 -97.87121582 488.44086456 C-97.89012878 487.25943878 -97.89012878 487.25943878 -97.90942383 486.05414581 C-97.9013269 485.212388 -97.89322998 484.37063019 -97.8848877 483.50336456 C-97.8887146 482.63066925 -97.8925415 481.75797394 -97.89648438 480.85883331 C-97.8992026 479.01637364 -97.89184764 477.17387532 -97.87512207 475.33148956 C-97.85371017 472.51290523 -97.87492571 469.69686972 -97.9005127 466.87836456 C-97.8978694 465.08669228 -97.89274439 463.29502157 -97.8848877 461.50336456 C-97.89703308 460.24072784 -97.89703308 460.24072784 -97.90942383 458.95258331 C-97.89681519 458.16496613 -97.88420654 457.37734894 -97.87121582 456.56586456 C-97.86803345 455.87621613 -97.86485107 455.18656769 -97.86157227 454.47602081 C-97.3536377 452.50336456 -97.3536377 452.50336456 -93.3536377 448.50336456 C-89.3936377 448.50336456 -85.4336377 448.50336456 -81.3536377 448.50336456 C-81.3536377 379.86336456 -81.3536377 311.22336456 -81.3536377 240.50336456 C-85.3136377 240.50336456 -89.2736377 240.50336456 -93.3536377 240.50336456 C-97.85478199 236.00222026 -97.85478199 236.00222026 -97.87121582 232.44086456 C-97.88382446 231.65324738 -97.89643311 230.86563019 -97.90942383 230.05414581 C-97.89727844 228.79150909 -97.89727844 228.79150909 -97.8848877 227.50336456 C-97.8887146 226.63066925 -97.8925415 225.75797394 -97.89648438 224.85883331 C-97.8992026 223.01637364 -97.89184764 221.17387532 -97.87512207 219.33148956 C-97.85371017 216.51290523 -97.87492571 213.69686972 -97.9005127 210.87836456 C-97.8978694 209.08669228 -97.89274439 207.29502157 -97.8848877 205.50336456 C-97.89298462 204.66160675 -97.90108154 203.81984894 -97.90942383 202.95258331 C-97.89051086 201.77115753 -97.89051086 201.77115753 -97.87121582 200.56586456 C-97.86803345 199.87621613 -97.86485107 199.18656769 -97.86157227 198.47602081 C-97.04177582 195.29219229 -96.12136703 194.34862323 -93.3536377 192.50336456 C-89.65507732 191.91514095 -85.98854212 191.99904499 -82.25109863 192.049263 C-81.11910034 192.04867889 -79.98710205 192.04809479 -78.82080078 192.04749298 C-75.07622701 192.05028143 -71.33244755 192.08141105 -67.5880127 192.11273956 C-64.99298538 192.1201992 -62.39795244 192.12589344 -59.80291748 192.12989044 C-53.66885453 192.14360656 -47.53511978 192.17513707 -41.40118051 192.2152884 C-34.41698048 192.26001206 -27.43276675 192.28199459 -20.44845915 192.30207014 C-6.08336117 192.34387023 8.28148017 192.41502508 22.6463623 192.50336456 C22.6463623 187.22336456 22.6463623 181.94336456 22.6463623 176.50336456 C20.67151855 176.54977081 18.6966748 176.59617706 16.6619873 176.64398956 C14.07346073 176.68150444 11.48491784 176.7179049 8.8963623 176.75336456 C7.59440918 176.78688019 6.29245605 176.82039581 4.9510498 176.85492706 C3.70065918 176.86781769 2.45026855 176.88070831 1.1619873 176.89398956 C0.0098877 176.91493683 -1.14221191 176.93588409 -2.32922363 176.95746613 C-5.3536377 176.50336456 -5.3536377 176.50336456 -7.72766113 175.0414505 C-10.14518714 171.26778679 -9.92718245 167.90033613 -9.8848877 163.50336456 C-9.8887146 162.63066925 -9.8925415 161.75797394 -9.89648438 160.85883331 C-9.8992026 159.01637364 -9.89184764 157.17387532 -9.87512207 155.33148956 C-9.85371017 152.51290523 -9.87492571 149.69686972 -9.9005127 146.87836456 C-9.8978694 145.08669228 -9.89274439 143.29502157 -9.8848877 141.50336456 C-9.89298462 140.66160675 -9.90108154 139.81984894 -9.90942383 138.95258331 C-9.85041614 135.2665823 -9.74650785 133.11661954 -7.72766113 129.96527863 C-4.59140486 128.03398466 -2.50962309 128.04598301 1.1619873 128.11273956 C2.41237793 128.12563019 3.66276855 128.13852081 4.9510498 128.15180206 C6.25300293 128.18531769 7.55495605 128.21883331 8.8963623 128.25336456 C10.21378418 128.27141144 11.53120605 128.28945831 12.8885498 128.30805206 C16.14146387 128.35519575 19.39400447 128.4269384 22.6463623 128.50336456 C22.6463623 123.22336456 22.6463623 117.94336456 22.6463623 112.50336456 C20.67151855 112.54977081 18.6966748 112.59617706 16.6619873 112.64398956 C14.07346073 112.68150444 11.48491784 112.7179049 8.8963623 112.75336456 C7.59440918 112.78688019 6.29245605 112.82039581 4.9510498 112.85492706 C3.70065918 112.86781769 2.45026855 112.88070831 1.1619873 112.89398956 C0.0098877 112.91493683 -1.14221191 112.93588409 -2.32922363 112.95746613 C-5.3536377 112.50336456 -5.3536377 112.50336456 -7.51031494 111.09607697 C-10.34339105 107.11123408 -9.91185223 103.34276567 -9.87121582 98.56586456 C-9.8782251 97.55733429 -9.88523437 96.54880402 -9.89245605 95.50971222 C-9.91006988 92.17398342 -9.8984008 88.83910208 -9.8848877 85.50336456 C-9.88758162 83.18695665 -9.89146321 80.87054985 -9.89648438 78.55414581 C-9.90238404 73.69856758 -9.89380108 68.84328361 -9.87512207 63.98773956 C-9.85233266 57.7597181 -9.86545318 51.53238611 -9.88941193 45.30438995 C-9.90385702 40.52088972 -9.89926975 35.73755329 -9.88890076 30.95404816 C-9.88622992 28.65749785 -9.8895157 26.36093273 -9.89881897 24.06439972 C-9.90896297 20.85615316 -9.89351253 17.6490275 -9.87121582 14.44086456 C-9.87931274 13.48905304 -9.88740967 12.53724152 -9.89575195 11.55658722 C-9.87883301 10.24440216 -9.87883301 10.24440216 -9.86157227 8.90570831 C-9.86006416 8.147659 -9.85855606 7.38960968 -9.85700226 6.60858917 C-8.61330581 1.40707011 -4.9243346 0.00338728 0 0 Z M6.6463623 16.50336456 C6.6463623 42.90336456 6.6463623 69.30336456 6.6463623 96.50336456 C101.6863623 96.50336456 196.7263623 96.50336456 294.6463623 96.50336456 C294.6463623 70.10336456 294.6463623 43.70336456 294.6463623 16.50336456 C199.6063623 16.50336456 104.5663623 16.50336456 6.6463623 16.50336456 Z M38.6463623 112.50336456 C38.6463623 117.78336456 38.6463623 123.06336456 38.6463623 128.50336456 C112.5663623 128.50336456 186.4863623 128.50336456 262.6463623 128.50336456 C262.6463623 123.22336456 262.6463623 117.94336456 262.6463623 112.50336456 C188.7263623 112.50336456 114.8063623 112.50336456 38.6463623 112.50336456 Z M6.6463623 144.50336456 C6.6463623 149.78336456 6.6463623 155.06336456 6.6463623 160.50336456 C101.6863623 160.50336456 196.7263623 160.50336456 294.6463623 160.50336456 C294.6463623 155.22336456 294.6463623 149.94336456 294.6463623 144.50336456 C199.6063623 144.50336456 104.5663623 144.50336456 6.6463623 144.50336456 Z M38.6463623 176.50336456 C38.6463623 266.26336456 38.6463623 356.02336456 38.6463623 448.50336456 C54.4863623 448.50336456 70.3263623 448.50336456 86.6463623 448.50336456 C86.68374512 441.89691925 86.72112793 435.29047394 86.75964355 428.48383331 C86.7899106 424.30477048 86.82105015 420.12575089 86.85534668 415.94672394 C86.90972998 409.30994555 86.96083734 402.67325273 86.99279785 396.03632355 C87.01875969 390.68697499 87.05911135 385.33791276 87.10954857 379.98874092 C87.12626557 377.94538998 87.13774964 375.90198947 87.14397621 373.85857964 C87.15356484 371.00183034 87.18156084 368.14582159 87.21398926 365.28925323 C87.21255417 364.43977112 87.21111908 363.590289 87.2096405 362.715065 C87.30190072 356.98859585 87.30190072 356.98859585 88.86526775 354.78633404 C91.21232855 353.09568412 92.66133588 353.12612431 95.54260254 353.12241364 C96.55208954 353.11395416 97.56157654 353.10549469 98.60165405 353.09677887 C100.26153854 353.10588791 100.26153854 353.10588791 101.95495605 353.11518097 C103.12100372 353.10992401 104.28705139 353.10466705 105.48843384 353.09925079 C109.35371179 353.08601647 113.21857996 353.09480138 117.0838623 353.10492706 C119.76282263 353.10290732 122.44177036 353.1000016 125.12072754 353.09622955 C130.73966943 353.09077036 136.35849305 353.09796783 141.97741699 353.11225128 C148.4752942 353.12857823 154.97288903 353.12328983 161.47075939 353.10677207 C167.04791527 353.09316178 172.62498609 353.09123526 178.20215321 353.09908807 C181.53394304 353.10376717 184.86557088 353.10320672 188.19735718 353.09447861 C191.91102369 353.08688583 195.62414295 353.09843862 199.33776855 353.11518097 C200.44435822 353.10910828 201.55094788 353.10303558 202.69107056 353.09677887 C203.70055756 353.10523834 204.71004456 353.11369781 205.75012207 353.12241364 C206.6283815 353.12354471 207.50664093 353.12467579 208.41151428 353.12584114 C210.6463623 353.50336456 210.6463623 353.50336456 212.42745686 354.78633404 C214.60868089 357.85894993 214.08488174 361.65098055 214.07873535 365.28925323 C214.09402283 366.63590309 214.09402283 366.63590309 214.10961914 368.009758 C214.13983909 370.98034584 214.14902883 373.95061171 214.15808105 376.92133331 C214.17492106 378.97971933 214.19307038 381.03809503 214.21247864 383.09645844 C214.26005835 388.51662723 214.28981616 393.93675418 214.31591797 399.35706329 C214.3509157 405.85914125 214.40795101 412.36105839 214.46131134 418.86300659 C214.53991862 428.74310585 214.59045386 438.62299326 214.6463623 448.50336456 C230.4863623 448.50336456 246.3263623 448.50336456 262.6463623 448.50336456 C262.6463623 358.74336456 262.6463623 268.98336456 262.6463623 176.50336456 C188.7263623 176.50336456 114.8063623 176.50336456 38.6463623 176.50336456 Z M-81.3536377 208.50336456 C-81.3536377 213.78336456 -81.3536377 219.06336456 -81.3536377 224.50336456 C-47.0336377 224.50336456 -12.7136377 224.50336456 22.6463623 224.50336456 C22.6463623 219.22336456 22.6463623 213.94336456 22.6463623 208.50336456 C-11.6736377 208.50336456 -45.9936377 208.50336456 -81.3536377 208.50336456 Z M278.6463623 208.50336456 C278.6463623 213.78336456 278.6463623 219.06336456 278.6463623 224.50336456 C312.9663623 224.50336456 347.2863623 224.50336456 382.6463623 224.50336456 C382.6463623 219.22336456 382.6463623 213.94336456 382.6463623 208.50336456 C348.3263623 208.50336456 314.0063623 208.50336456 278.6463623 208.50336456 Z M-65.3536377 240.50336456 C-65.3536377 309.14336456 -65.3536377 377.78336456 -65.3536377 448.50336456 C-36.3136377 448.50336456 -7.2736377 448.50336456 22.6463623 448.50336456 C22.6463623 379.86336456 22.6463623 311.22336456 22.6463623 240.50336456 C-6.3936377 240.50336456 -35.4336377 240.50336456 -65.3536377 240.50336456 Z M278.6463623 240.50336456 C278.6463623 309.14336456 278.6463623 377.78336456 278.6463623 448.50336456 C307.6863623 448.50336456 336.7263623 448.50336456 366.6463623 448.50336456 C366.6463623 379.86336456 366.6463623 311.22336456 366.6463623 240.50336456 C337.6063623 240.50336456 308.5663623 240.50336456 278.6463623 240.50336456 Z M102.6463623 368.50336456 C102.6463623 394.90336456 102.6463623 421.30336456 102.6463623 448.50336456 C115.8463623 448.50336456 129.0463623 448.50336456 142.6463623 448.50336456 C142.6463623 422.10336456 142.6463623 395.70336456 142.6463623 368.50336456 C129.4463623 368.50336456 116.2463623 368.50336456 102.6463623 368.50336456 Z M158.6463623 368.50336456 C158.6463623 394.90336456 158.6463623 421.30336456 158.6463623 448.50336456 C171.8463623 448.50336456 185.0463623 448.50336456 198.6463623 448.50336456 C198.6463623 422.10336456 198.6463623 395.70336456 198.6463623 368.50336456 C185.4463623 368.50336456 172.2463623 368.50336456 158.6463623 368.50336456 Z M-81.3536377 464.50336456 C-81.3536377 469.78336456 -81.3536377 475.06336456 -81.3536377 480.50336456 C71.7663623 480.50336456 224.8863623 480.50336456 382.6463623 480.50336456 C382.6463623 475.22336456 382.6463623 469.94336456 382.6463623 464.50336456 C229.5263623 464.50336456 76.4063623 464.50336456 -81.3536377 464.50336456 Z " fill="#000000" transform="translate(105.3536376953125,7.496635437011719)"/>
<path d="M0 0 C1.18142578 -0.01891296 1.18142578 -0.01891296 2.38671875 -0.03820801 C3.22847656 -0.03011108 4.07023437 -0.02201416 4.9375 -0.01367188 C5.81019531 -0.01749878 6.68289063 -0.02132568 7.58203125 -0.02526855 C9.42449092 -0.02798678 11.26698924 -0.02063182 13.109375 -0.00390625 C15.92795934 0.01750565 18.74399485 -0.00370989 21.5625 -0.02929688 C23.35417229 -0.02665358 25.14584299 -0.02152857 26.9375 -0.01367188 C27.77925781 -0.0217688 28.62101562 -0.02986572 29.48828125 -0.03820801 C30.27589844 -0.02559937 31.06351562 -0.01299072 31.875 0 C32.90947266 0.00477356 32.90947266 0.00477356 33.96484375 0.00964355 C36.90886907 0.76769364 38.10322175 2.1315937 39.9375 4.51757812 C40.44543457 7.09765625 40.44543457 7.09765625 40.45507812 10.04882812 C40.46768677 11.15677734 40.48029541 12.26472656 40.49328613 13.40625 C40.48518921 14.59798828 40.47709229 15.78972656 40.46875 17.01757812 C40.4725769 18.24541016 40.47640381 19.47324219 40.48034668 20.73828125 C40.48306842 23.33399272 40.47568911 25.92973149 40.45898438 28.52539062 C40.43758075 32.50257412 40.45877963 36.47795094 40.484375 40.45507812 C40.48173177 42.97591545 40.47660691 45.49675166 40.46875 48.01757812 C40.47684692 49.20931641 40.48494385 50.40105469 40.49328613 51.62890625 C40.48067749 52.73685547 40.46806885 53.84480469 40.45507812 54.98632812 C40.45030457 56.4471582 40.45030457 56.4471582 40.44543457 57.9375 C39.78603494 61.28695218 38.63188172 62.47195627 35.9375 64.51757812 C33.96484375 65.0255127 33.96484375 65.0255127 31.875 65.03515625 C30.69357422 65.05406921 30.69357422 65.05406921 29.48828125 65.07336426 C28.64652344 65.06526733 27.80476563 65.05717041 26.9375 65.04882812 C26.06480469 65.05265503 25.19210937 65.05648193 24.29296875 65.0604248 C22.45050908 65.06314303 20.60801076 65.05578807 18.765625 65.0390625 C15.94704066 65.0176506 13.13100515 65.03886614 10.3125 65.06445312 C8.52082771 65.06180983 6.72915701 65.05668482 4.9375 65.04882812 C3.67486328 65.06097351 3.67486328 65.06097351 2.38671875 65.07336426 C1.20529297 65.05445129 1.20529297 65.05445129 0 65.03515625 C-0.68964844 65.03197388 -1.37929688 65.0287915 -2.08984375 65.0255127 C-5.03386907 64.26746261 -6.22822175 62.90356255 -8.0625 60.51757812 C-8.57043457 57.9375 -8.57043457 57.9375 -8.58007812 54.98632812 C-8.59268677 53.87837891 -8.60529541 52.77042969 -8.61828613 51.62890625 C-8.61018921 50.43716797 -8.60209229 49.24542969 -8.59375 48.01757812 C-8.5975769 46.78974609 -8.60140381 45.56191406 -8.60534668 44.296875 C-8.60806842 41.70116353 -8.60068911 39.10542476 -8.58398438 36.50976562 C-8.56258075 32.53258213 -8.58377963 28.55720531 -8.609375 24.58007812 C-8.60673177 22.0592408 -8.60160691 19.53840459 -8.59375 17.01757812 C-8.60184692 15.82583984 -8.60994385 14.63410156 -8.61828613 13.40625 C-8.60567749 12.29830078 -8.59306885 11.19035156 -8.58007812 10.04882812 C-8.57689575 9.07494141 -8.57371338 8.10105469 -8.57043457 7.09765625 C-7.63926889 2.36775532 -4.76089892 0.0219691 0 0 Z M7.9375 16.51757812 C7.9375 27.07757813 7.9375 37.63757813 7.9375 48.51757812 C13.2175 48.51757812 18.4975 48.51757812 23.9375 48.51757812 C23.9375 37.95757812 23.9375 27.39757812 23.9375 16.51757812 C18.6575 16.51757812 13.3775 16.51757812 7.9375 16.51757812 Z " fill="#000000" transform="translate(312.0625,279.482421875)"/>
<path d="M0 0 C1.18142578 -0.01891296 1.18142578 -0.01891296 2.38671875 -0.03820801 C3.22847656 -0.03011108 4.07023438 -0.02201416 4.9375 -0.01367188 C5.81019531 -0.01749878 6.68289062 -0.02132568 7.58203125 -0.02526855 C9.42449092 -0.02798678 11.26698924 -0.02063182 13.109375 -0.00390625 C15.92795934 0.01750565 18.74399485 -0.00370989 21.5625 -0.02929688 C23.35417229 -0.02665358 25.14584299 -0.02152857 26.9375 -0.01367188 C27.77925781 -0.0217688 28.62101562 -0.02986572 29.48828125 -0.03820801 C30.27589844 -0.02559937 31.06351562 -0.01299072 31.875 0 C32.90947266 0.00477356 32.90947266 0.00477356 33.96484375 0.00964355 C36.90886907 0.76769364 38.10322175 2.1315937 39.9375 4.51757812 C40.44543457 7.09765625 40.44543457 7.09765625 40.45507812 10.04882812 C40.46768677 11.15677734 40.48029541 12.26472656 40.49328613 13.40625 C40.48518921 14.59798828 40.47709229 15.78972656 40.46875 17.01757812 C40.4725769 18.24541016 40.47640381 19.47324219 40.48034668 20.73828125 C40.48306842 23.33399272 40.47568911 25.92973149 40.45898438 28.52539062 C40.43758075 32.50257412 40.45877963 36.47795094 40.484375 40.45507812 C40.48173177 42.97591545 40.47660691 45.49675166 40.46875 48.01757812 C40.47684692 49.20931641 40.48494385 50.40105469 40.49328613 51.62890625 C40.48067749 52.73685547 40.46806885 53.84480469 40.45507812 54.98632812 C40.45030457 56.4471582 40.45030457 56.4471582 40.44543457 57.9375 C39.78603494 61.28695218 38.63188172 62.47195627 35.9375 64.51757812 C33.96484375 65.0255127 33.96484375 65.0255127 31.875 65.03515625 C30.69357422 65.05406921 30.69357422 65.05406921 29.48828125 65.07336426 C28.64652344 65.06526733 27.80476563 65.05717041 26.9375 65.04882812 C26.06480469 65.05265503 25.19210937 65.05648193 24.29296875 65.0604248 C22.45050908 65.06314303 20.60801076 65.05578807 18.765625 65.0390625 C15.94704066 65.0176506 13.13100515 65.03886614 10.3125 65.06445312 C8.52082771 65.06180983 6.72915701 65.05668482 4.9375 65.04882812 C3.67486328 65.06097351 3.67486328 65.06097351 2.38671875 65.07336426 C1.20529297 65.05445129 1.20529297 65.05445129 0 65.03515625 C-0.68964844 65.03197388 -1.37929687 65.0287915 -2.08984375 65.0255127 C-5.03386907 64.26746261 -6.22822175 62.90356255 -8.0625 60.51757812 C-8.57043457 57.9375 -8.57043457 57.9375 -8.58007812 54.98632812 C-8.59268677 53.87837891 -8.60529541 52.77042969 -8.61828613 51.62890625 C-8.61018921 50.43716797 -8.60209229 49.24542969 -8.59375 48.01757812 C-8.5975769 46.78974609 -8.60140381 45.56191406 -8.60534668 44.296875 C-8.60806842 41.70116353 -8.60068911 39.10542476 -8.58398438 36.50976562 C-8.56258075 32.53258213 -8.58377963 28.55720531 -8.609375 24.58007812 C-8.60673177 22.0592408 -8.60160691 19.53840459 -8.59375 17.01757812 C-8.60184692 15.82583984 -8.60994385 14.63410156 -8.61828613 13.40625 C-8.60567749 12.29830078 -8.59306885 11.19035156 -8.58007812 10.04882812 C-8.57689575 9.07494141 -8.57371338 8.10105469 -8.57043457 7.09765625 C-7.63926889 2.36775532 -4.76089892 0.0219691 0 0 Z M7.9375 16.51757812 C7.9375 27.07757813 7.9375 37.63757813 7.9375 48.51757812 C13.2175 48.51757812 18.4975 48.51757812 23.9375 48.51757812 C23.9375 37.95757812 23.9375 27.39757812 23.9375 16.51757812 C18.6575 16.51757812 13.3775 16.51757812 7.9375 16.51757812 Z " fill="#000000" transform="translate(240.0625,279.482421875)"/>
<path d="M0 0 C1.18142578 -0.01891296 1.18142578 -0.01891296 2.38671875 -0.03820801 C3.22847656 -0.03011108 4.07023438 -0.02201416 4.9375 -0.01367188 C5.81019531 -0.01749878 6.68289062 -0.02132568 7.58203125 -0.02526855 C9.42449092 -0.02798678 11.26698924 -0.02063182 13.109375 -0.00390625 C15.92795934 0.01750565 18.74399485 -0.00370989 21.5625 -0.02929688 C23.35417229 -0.02665358 25.14584299 -0.02152857 26.9375 -0.01367188 C27.77925781 -0.0217688 28.62101562 -0.02986572 29.48828125 -0.03820801 C30.27589844 -0.02559937 31.06351563 -0.01299072 31.875 0 C32.90947266 0.00477356 32.90947266 0.00477356 33.96484375 0.00964355 C36.90886907 0.76769364 38.10322175 2.1315937 39.9375 4.51757812 C40.44543457 7.09765625 40.44543457 7.09765625 40.45507812 10.04882812 C40.46768677 11.15677734 40.48029541 12.26472656 40.49328613 13.40625 C40.48518921 14.59798828 40.47709229 15.78972656 40.46875 17.01757812 C40.4725769 18.24541016 40.47640381 19.47324219 40.48034668 20.73828125 C40.48306842 23.33399272 40.47568911 25.92973149 40.45898438 28.52539062 C40.43758075 32.50257412 40.45877963 36.47795094 40.484375 40.45507812 C40.48173177 42.97591545 40.47660691 45.49675166 40.46875 48.01757812 C40.47684692 49.20931641 40.48494385 50.40105469 40.49328613 51.62890625 C40.48067749 52.73685547 40.46806885 53.84480469 40.45507812 54.98632812 C40.45030457 56.4471582 40.45030457 56.4471582 40.44543457 57.9375 C39.78603494 61.28695218 38.63188172 62.47195627 35.9375 64.51757812 C33.96484375 65.0255127 33.96484375 65.0255127 31.875 65.03515625 C30.69357422 65.05406921 30.69357422 65.05406921 29.48828125 65.07336426 C28.64652344 65.06526733 27.80476563 65.05717041 26.9375 65.04882812 C26.06480469 65.05265503 25.19210938 65.05648193 24.29296875 65.0604248 C22.45050908 65.06314303 20.60801076 65.05578807 18.765625 65.0390625 C15.94704066 65.0176506 13.13100515 65.03886614 10.3125 65.06445312 C8.52082771 65.06180983 6.72915701 65.05668482 4.9375 65.04882812 C3.67486328 65.06097351 3.67486328 65.06097351 2.38671875 65.07336426 C1.20529297 65.05445129 1.20529297 65.05445129 0 65.03515625 C-0.68964844 65.03197388 -1.37929687 65.0287915 -2.08984375 65.0255127 C-5.03386907 64.26746261 -6.22822175 62.90356255 -8.0625 60.51757812 C-8.57043457 57.9375 -8.57043457 57.9375 -8.58007812 54.98632812 C-8.59268677 53.87837891 -8.60529541 52.77042969 -8.61828613 51.62890625 C-8.61018921 50.43716797 -8.60209229 49.24542969 -8.59375 48.01757812 C-8.5975769 46.78974609 -8.60140381 45.56191406 -8.60534668 44.296875 C-8.60806842 41.70116353 -8.60068911 39.10542476 -8.58398438 36.50976562 C-8.56258075 32.53258213 -8.58377963 28.55720531 -8.609375 24.58007812 C-8.60673177 22.0592408 -8.60160691 19.53840459 -8.59375 17.01757812 C-8.60184692 15.82583984 -8.60994385 14.63410156 -8.61828613 13.40625 C-8.60567749 12.29830078 -8.59306885 11.19035156 -8.58007812 10.04882812 C-8.57689575 9.07494141 -8.57371338 8.10105469 -8.57043457 7.09765625 C-7.63926889 2.36775532 -4.76089892 0.0219691 0 0 Z M7.9375 16.51757812 C7.9375 27.07757813 7.9375 37.63757813 7.9375 48.51757812 C13.2175 48.51757812 18.4975 48.51757812 23.9375 48.51757812 C23.9375 37.95757812 23.9375 27.39757812 23.9375 16.51757812 C18.6575 16.51757812 13.3775 16.51757812 7.9375 16.51757812 Z " fill="#000000" transform="translate(168.0625,279.482421875)"/>
<path d="M0 0 C1.18142578 -0.01891296 1.18142578 -0.01891296 2.38671875 -0.03820801 C3.22847656 -0.03011108 4.07023437 -0.02201416 4.9375 -0.01367188 C5.81019531 -0.01749878 6.68289063 -0.02132568 7.58203125 -0.02526855 C9.42449092 -0.02798678 11.26698924 -0.02063182 13.109375 -0.00390625 C15.92795934 0.01750565 18.74399485 -0.00370989 21.5625 -0.02929688 C23.35417229 -0.02665358 25.14584299 -0.02152857 26.9375 -0.01367188 C27.77925781 -0.0217688 28.62101562 -0.02986572 29.48828125 -0.03820801 C30.27589844 -0.02559937 31.06351562 -0.01299072 31.875 0 C32.90947266 0.00477356 32.90947266 0.00477356 33.96484375 0.00964355 C36.90886907 0.76769364 38.10322175 2.1315937 39.9375 4.51757812 C40.44543457 7.09765625 40.44543457 7.09765625 40.45507812 10.04882812 C40.46768677 11.15677734 40.48029541 12.26472656 40.49328613 13.40625 C40.48518921 14.59798828 40.47709229 15.78972656 40.46875 17.01757812 C40.4725769 18.24541016 40.47640381 19.47324219 40.48034668 20.73828125 C40.48306842 23.33399272 40.47568911 25.92973149 40.45898438 28.52539062 C40.43758075 32.50257412 40.45877963 36.47795094 40.484375 40.45507812 C40.48173177 42.97591545 40.47660691 45.49675166 40.46875 48.01757812 C40.47684692 49.20931641 40.48494385 50.40105469 40.49328613 51.62890625 C40.48067749 52.73685547 40.46806885 53.84480469 40.45507812 54.98632812 C40.45030457 56.4471582 40.45030457 56.4471582 40.44543457 57.9375 C39.78603494 61.28695218 38.63188172 62.47195627 35.9375 64.51757812 C33.96484375 65.0255127 33.96484375 65.0255127 31.875 65.03515625 C30.69357422 65.05406921 30.69357422 65.05406921 29.48828125 65.07336426 C28.64652344 65.06526733 27.80476563 65.05717041 26.9375 65.04882812 C26.06480469 65.05265503 25.19210937 65.05648193 24.29296875 65.0604248 C22.45050908 65.06314303 20.60801076 65.05578807 18.765625 65.0390625 C15.94704066 65.0176506 13.13100515 65.03886614 10.3125 65.06445312 C8.52082771 65.06180983 6.72915701 65.05668482 4.9375 65.04882812 C3.67486328 65.06097351 3.67486328 65.06097351 2.38671875 65.07336426 C1.20529297 65.05445129 1.20529297 65.05445129 0 65.03515625 C-0.68964844 65.03197388 -1.37929688 65.0287915 -2.08984375 65.0255127 C-5.03386907 64.26746261 -6.22822175 62.90356255 -8.0625 60.51757812 C-8.57043457 57.9375 -8.57043457 57.9375 -8.58007812 54.98632812 C-8.59268677 53.87837891 -8.60529541 52.77042969 -8.61828613 51.62890625 C-8.61018921 50.43716797 -8.60209229 49.24542969 -8.59375 48.01757812 C-8.5975769 46.78974609 -8.60140381 45.56191406 -8.60534668 44.296875 C-8.60806842 41.70116353 -8.60068911 39.10542476 -8.58398438 36.50976562 C-8.56258075 32.53258213 -8.58377963 28.55720531 -8.609375 24.58007812 C-8.60673177 22.0592408 -8.60160691 19.53840459 -8.59375 17.01757812 C-8.60184692 15.82583984 -8.60994385 14.63410156 -8.61828613 13.40625 C-8.60567749 12.29830078 -8.59306885 11.19035156 -8.58007812 10.04882812 C-8.57689575 9.07494141 -8.57371338 8.10105469 -8.57043457 7.09765625 C-7.63926889 2.36775532 -4.76089892 0.0219691 0 0 Z M7.9375 16.51757812 C7.9375 27.07757813 7.9375 37.63757813 7.9375 48.51757812 C13.2175 48.51757812 18.4975 48.51757812 23.9375 48.51757812 C23.9375 37.95757812 23.9375 27.39757812 23.9375 16.51757812 C18.6575 16.51757812 13.3775 16.51757812 7.9375 16.51757812 Z " fill="#000000" transform="translate(312.0625,199.482421875)"/>
<path d="M0 0 C1.18142578 -0.01891296 1.18142578 -0.01891296 2.38671875 -0.03820801 C3.22847656 -0.03011108 4.07023438 -0.02201416 4.9375 -0.01367188 C5.81019531 -0.01749878 6.68289062 -0.02132568 7.58203125 -0.02526855 C9.42449092 -0.02798678 11.26698924 -0.02063182 13.109375 -0.00390625 C15.92795934 0.01750565 18.74399485 -0.00370989 21.5625 -0.02929688 C23.35417229 -0.02665358 25.14584299 -0.02152857 26.9375 -0.01367188 C27.77925781 -0.0217688 28.62101562 -0.02986572 29.48828125 -0.03820801 C30.27589844 -0.02559937 31.06351562 -0.01299072 31.875 0 C32.90947266 0.00477356 32.90947266 0.00477356 33.96484375 0.00964355 C36.90886907 0.76769364 38.10322175 2.1315937 39.9375 4.51757812 C40.44543457 7.09765625 40.44543457 7.09765625 40.45507812 10.04882812 C40.46768677 11.15677734 40.48029541 12.26472656 40.49328613 13.40625 C40.48518921 14.59798828 40.47709229 15.78972656 40.46875 17.01757812 C40.4725769 18.24541016 40.47640381 19.47324219 40.48034668 20.73828125 C40.48306842 23.33399272 40.47568911 25.92973149 40.45898438 28.52539062 C40.43758075 32.50257412 40.45877963 36.47795094 40.484375 40.45507812 C40.48173177 42.97591545 40.47660691 45.49675166 40.46875 48.01757812 C40.47684692 49.20931641 40.48494385 50.40105469 40.49328613 51.62890625 C40.48067749 52.73685547 40.46806885 53.84480469 40.45507812 54.98632812 C40.45030457 56.4471582 40.45030457 56.4471582 40.44543457 57.9375 C39.78603494 61.28695218 38.63188172 62.47195627 35.9375 64.51757812 C33.96484375 65.0255127 33.96484375 65.0255127 31.875 65.03515625 C30.69357422 65.05406921 30.69357422 65.05406921 29.48828125 65.07336426 C28.64652344 65.06526733 27.80476563 65.05717041 26.9375 65.04882812 C26.06480469 65.05265503 25.19210937 65.05648193 24.29296875 65.0604248 C22.45050908 65.06314303 20.60801076 65.05578807 18.765625 65.0390625 C15.94704066 65.0176506 13.13100515 65.03886614 10.3125 65.06445312 C8.52082771 65.06180983 6.72915701 65.05668482 4.9375 65.04882812 C3.67486328 65.06097351 3.67486328 65.06097351 2.38671875 65.07336426 C1.20529297 65.05445129 1.20529297 65.05445129 0 65.03515625 C-0.68964844 65.03197388 -1.37929687 65.0287915 -2.08984375 65.0255127 C-5.03386907 64.26746261 -6.22822175 62.90356255 -8.0625 60.51757812 C-8.57043457 57.9375 -8.57043457 57.9375 -8.58007812 54.98632812 C-8.59268677 53.87837891 -8.60529541 52.77042969 -8.61828613 51.62890625 C-8.61018921 50.43716797 -8.60209229 49.24542969 -8.59375 48.01757812 C-8.5975769 46.78974609 -8.60140381 45.56191406 -8.60534668 44.296875 C-8.60806842 41.70116353 -8.60068911 39.10542476 -8.58398438 36.50976562 C-8.56258075 32.53258213 -8.58377963 28.55720531 -8.609375 24.58007812 C-8.60673177 22.0592408 -8.60160691 19.53840459 -8.59375 17.01757812 C-8.60184692 15.82583984 -8.60994385 14.63410156 -8.61828613 13.40625 C-8.60567749 12.29830078 -8.59306885 11.19035156 -8.58007812 10.04882812 C-8.57689575 9.07494141 -8.57371338 8.10105469 -8.57043457 7.09765625 C-7.63926889 2.36775532 -4.76089892 0.0219691 0 0 Z M7.9375 16.51757812 C7.9375 27.07757813 7.9375 37.63757813 7.9375 48.51757812 C13.2175 48.51757812 18.4975 48.51757812 23.9375 48.51757812 C23.9375 37.95757812 23.9375 27.39757812 23.9375 16.51757812 C18.6575 16.51757812 13.3775 16.51757812 7.9375 16.51757812 Z " fill="#000000" transform="translate(240.0625,199.482421875)"/>
<path d="M0 0 C1.18142578 -0.01891296 1.18142578 -0.01891296 2.38671875 -0.03820801 C3.22847656 -0.03011108 4.07023438 -0.02201416 4.9375 -0.01367188 C5.81019531 -0.01749878 6.68289062 -0.02132568 7.58203125 -0.02526855 C9.42449092 -0.02798678 11.26698924 -0.02063182 13.109375 -0.00390625 C15.92795934 0.01750565 18.74399485 -0.00370989 21.5625 -0.02929688 C23.35417229 -0.02665358 25.14584299 -0.02152857 26.9375 -0.01367188 C27.77925781 -0.0217688 28.62101562 -0.02986572 29.48828125 -0.03820801 C30.27589844 -0.02559937 31.06351563 -0.01299072 31.875 0 C32.90947266 0.00477356 32.90947266 0.00477356 33.96484375 0.00964355 C36.90886907 0.76769364 38.10322175 2.1315937 39.9375 4.51757812 C40.44543457 7.09765625 40.44543457 7.09765625 40.45507812 10.04882812 C40.46768677 11.15677734 40.48029541 12.26472656 40.49328613 13.40625 C40.48518921 14.59798828 40.47709229 15.78972656 40.46875 17.01757812 C40.4725769 18.24541016 40.47640381 19.47324219 40.48034668 20.73828125 C40.48306842 23.33399272 40.47568911 25.92973149 40.45898438 28.52539062 C40.43758075 32.50257412 40.45877963 36.47795094 40.484375 40.45507812 C40.48173177 42.97591545 40.47660691 45.49675166 40.46875 48.01757812 C40.47684692 49.20931641 40.48494385 50.40105469 40.49328613 51.62890625 C40.48067749 52.73685547 40.46806885 53.84480469 40.45507812 54.98632812 C40.45030457 56.4471582 40.45030457 56.4471582 40.44543457 57.9375 C39.78603494 61.28695218 38.63188172 62.47195627 35.9375 64.51757812 C33.96484375 65.0255127 33.96484375 65.0255127 31.875 65.03515625 C30.69357422 65.05406921 30.69357422 65.05406921 29.48828125 65.07336426 C28.64652344 65.06526733 27.80476563 65.05717041 26.9375 65.04882812 C26.06480469 65.05265503 25.19210938 65.05648193 24.29296875 65.0604248 C22.45050908 65.06314303 20.60801076 65.05578807 18.765625 65.0390625 C15.94704066 65.0176506 13.13100515 65.03886614 10.3125 65.06445312 C8.52082771 65.06180983 6.72915701 65.05668482 4.9375 65.04882812 C3.67486328 65.06097351 3.67486328 65.06097351 2.38671875 65.07336426 C1.20529297 65.05445129 1.20529297 65.05445129 0 65.03515625 C-0.68964844 65.03197388 -1.37929687 65.0287915 -2.08984375 65.0255127 C-5.03386907 64.26746261 -6.22822175 62.90356255 -8.0625 60.51757812 C-8.57043457 57.9375 -8.57043457 57.9375 -8.58007812 54.98632812 C-8.59268677 53.87837891 -8.60529541 52.77042969 -8.61828613 51.62890625 C-8.61018921 50.43716797 -8.60209229 49.24542969 -8.59375 48.01757812 C-8.5975769 46.78974609 -8.60140381 45.56191406 -8.60534668 44.296875 C-8.60806842 41.70116353 -8.60068911 39.10542476 -8.58398438 36.50976562 C-8.56258075 32.53258213 -8.58377963 28.55720531 -8.609375 24.58007812 C-8.60673177 22.0592408 -8.60160691 19.53840459 -8.59375 17.01757812 C-8.60184692 15.82583984 -8.60994385 14.63410156 -8.61828613 13.40625 C-8.60567749 12.29830078 -8.59306885 11.19035156 -8.58007812 10.04882812 C-8.57689575 9.07494141 -8.57371338 8.10105469 -8.57043457 7.09765625 C-7.63926889 2.36775532 -4.76089892 0.0219691 0 0 Z M7.9375 16.51757812 C7.9375 27.07757813 7.9375 37.63757813 7.9375 48.51757812 C13.2175 48.51757812 18.4975 48.51757812 23.9375 48.51757812 C23.9375 37.95757812 23.9375 27.39757812 23.9375 16.51757812 C18.6575 16.51757812 13.3775 16.51757812 7.9375 16.51757812 Z " fill="#000000" transform="translate(168.0625,199.482421875)"/>
<path d="M0 0 C1.18142578 -0.01891296 1.18142578 -0.01891296 2.38671875 -0.03820801 C3.22847656 -0.03011108 4.07023438 -0.02201416 4.9375 -0.01367188 C5.81019531 -0.01749878 6.68289062 -0.02132568 7.58203125 -0.02526855 C9.42449092 -0.02798678 11.26698924 -0.02063182 13.109375 -0.00390625 C15.92795934 0.01750565 18.74399485 -0.00370989 21.5625 -0.02929688 C23.35417229 -0.02665358 25.14584299 -0.02152857 26.9375 -0.01367188 C27.77925781 -0.0217688 28.62101562 -0.02986572 29.48828125 -0.03820801 C30.27589844 -0.02559937 31.06351563 -0.01299072 31.875 0 C32.90947266 0.00477356 32.90947266 0.00477356 33.96484375 0.00964355 C36.90886907 0.76769364 38.10322175 2.1315937 39.9375 4.51757812 C40.44543457 7.09765625 40.44543457 7.09765625 40.45507812 10.04882812 C40.46768677 11.15677734 40.48029541 12.26472656 40.49328613 13.40625 C40.48518921 14.59798828 40.47709229 15.78972656 40.46875 17.01757812 C40.4725769 18.24541016 40.47640381 19.47324219 40.48034668 20.73828125 C40.48306842 23.33399272 40.47568911 25.92973149 40.45898438 28.52539062 C40.43758075 32.50257412 40.45877963 36.47795094 40.484375 40.45507812 C40.48173177 42.97591545 40.47660691 45.49675166 40.46875 48.01757812 C40.47684692 49.20931641 40.48494385 50.40105469 40.49328613 51.62890625 C40.48067749 52.73685547 40.46806885 53.84480469 40.45507812 54.98632812 C40.45030457 56.4471582 40.45030457 56.4471582 40.44543457 57.9375 C39.78603494 61.28695218 38.63188172 62.47195627 35.9375 64.51757812 C33.96484375 65.0255127 33.96484375 65.0255127 31.875 65.03515625 C30.69357422 65.05406921 30.69357422 65.05406921 29.48828125 65.07336426 C28.64652344 65.06526733 27.80476563 65.05717041 26.9375 65.04882812 C26.06480469 65.05265503 25.19210938 65.05648193 24.29296875 65.0604248 C22.45050908 65.06314303 20.60801076 65.05578807 18.765625 65.0390625 C15.94704066 65.0176506 13.13100515 65.03886614 10.3125 65.06445312 C8.52082771 65.06180983 6.72915701 65.05668482 4.9375 65.04882812 C3.67486328 65.06097351 3.67486328 65.06097351 2.38671875 65.07336426 C1.20529297 65.05445129 1.20529297 65.05445129 0 65.03515625 C-0.68964844 65.03197388 -1.37929687 65.0287915 -2.08984375 65.0255127 C-5.03386907 64.26746261 -6.22822175 62.90356255 -8.0625 60.51757812 C-8.57043457 57.9375 -8.57043457 57.9375 -8.58007812 54.98632812 C-8.59268677 53.87837891 -8.60529541 52.77042969 -8.61828613 51.62890625 C-8.61018921 50.43716797 -8.60209229 49.24542969 -8.59375 48.01757812 C-8.5975769 46.78974609 -8.60140381 45.56191406 -8.60534668 44.296875 C-8.60806842 41.70116353 -8.60068911 39.10542476 -8.58398438 36.50976562 C-8.56258075 32.53258213 -8.58377963 28.55720531 -8.609375 24.58007812 C-8.60673177 22.0592408 -8.60160691 19.53840459 -8.59375 17.01757812 C-8.60184692 15.82583984 -8.60994385 14.63410156 -8.61828613 13.40625 C-8.60567749 12.29830078 -8.59306885 11.19035156 -8.58007812 10.04882812 C-8.57689575 9.07494141 -8.57371338 8.10105469 -8.57043457 7.09765625 C-7.63926889 2.36775532 -4.76089892 0.0219691 0 0 Z M7.9375 16.51757812 C7.9375 27.07757813 7.9375 37.63757813 7.9375 48.51757812 C13.2175 48.51757812 18.4975 48.51757812 23.9375 48.51757812 C23.9375 37.95757812 23.9375 27.39757812 23.9375 16.51757812 C18.6575 16.51757812 13.3775 16.51757812 7.9375 16.51757812 Z " fill="#000000" transform="translate(192.0625,31.482421875)"/>
<path d="M0 0 C5.28 0 10.56 0 16 0 C16 5.28 16 10.56 16 16 C21.28 16 26.56 16 32 16 C32 10.72 32 5.44 32 0 C37.28 0 42.56 0 48 0 C48 21.12 48 42.24 48 64 C42.72 64 37.44 64 32 64 C32 53.44 32 42.88 32 32 C26.72 32 21.44 32 16 32 C16 42.56 16 53.12 16 64 C10.72 64 5.44 64 0 64 C0 42.88 0 21.76 0 0 Z " fill="#000000" transform="translate(128,32)"/>
<path d="M0 0 C1.05026367 -0.0038269 2.10052734 -0.00765381 3.18261719 -0.01159668 C5.40170247 -0.01431696 7.62081974 -0.00694777 9.83984375 0.00976562 C13.23770595 0.03117255 16.63345361 0.00996675 20.03125 -0.015625 C22.18750467 -0.01298175 24.34375802 -0.00785682 26.5 0 C27.51674805 -0.00809692 28.53349609 -0.01619385 29.58105469 -0.02453613 C36.41596971 0.06639078 36.41596971 0.06639078 39.88867188 2.00195312 C41.93827108 5.81003198 41.82226623 9.26719429 41.78125 13.53125 C41.7850769 14.40394531 41.78890381 15.27664063 41.79284668 16.17578125 C41.7955649 18.01824092 41.78820994 19.86073924 41.77148438 21.703125 C41.75007248 24.52170934 41.77128801 27.33774485 41.796875 30.15625 C41.79423171 31.94792229 41.78910669 33.73959299 41.78125 35.53125 C41.78934692 36.37300781 41.79744385 37.21476562 41.80578613 38.08203125 C41.74958751 41.59256019 41.56811784 43.94019892 39.88867188 47.06054688 C35.60485191 49.44819783 31.32187981 49.10089928 26.5 49.0625 C24.92460449 49.06824036 24.92460449 49.06824036 23.31738281 49.07409668 C21.09829753 49.07681696 18.87918026 49.06944777 16.66015625 49.05273438 C13.26229405 49.03132745 9.86654639 49.05253325 6.46875 49.078125 C4.31249533 49.07548175 2.15624198 49.07035682 0 49.0625 C-1.01674805 49.07059692 -2.03349609 49.07869385 -3.08105469 49.08703613 C-9.91596971 48.99610922 -9.91596971 48.99610922 -13.38867188 47.06054688 C-15.43827108 43.25246802 -15.32226623 39.79530571 -15.28125 35.53125 C-15.2850769 34.65855469 -15.28890381 33.78585937 -15.29284668 32.88671875 C-15.2955649 31.04425908 -15.28820994 29.20176076 -15.27148438 27.359375 C-15.25007248 24.54079066 -15.27128801 21.72475515 -15.296875 18.90625 C-15.29423171 17.11457771 -15.28910669 15.32290701 -15.28125 13.53125 C-15.28934692 12.68949219 -15.29744385 11.84773438 -15.30578613 10.98046875 C-15.24958751 7.46993981 -15.06811784 5.12230108 -13.38867188 2.00195312 C-9.10485191 -0.38569783 -4.82187981 -0.03839928 0 0 Z M1.25 16.53125 C1.25 21.81125 1.25 27.09125 1.25 32.53125 C9.17 32.53125 17.09 32.53125 25.25 32.53125 C25.25 27.25125 25.25 21.97125 25.25 16.53125 C17.33 16.53125 9.41 16.53125 1.25 16.53125 Z " fill="#000000" transform="translate(414.75,391.46875)"/>
<path d="M0 0 C1.05026367 -0.0038269 2.10052734 -0.00765381 3.18261719 -0.01159668 C5.40170247 -0.01431696 7.62081974 -0.00694777 9.83984375 0.00976562 C13.23770595 0.03117255 16.63345361 0.00996675 20.03125 -0.015625 C22.18750467 -0.01298175 24.34375802 -0.00785682 26.5 0 C27.51674805 -0.00809692 28.53349609 -0.01619385 29.58105469 -0.02453613 C36.41596971 0.06639078 36.41596971 0.06639078 39.88867188 2.00195312 C41.93827108 5.81003198 41.82226623 9.26719429 41.78125 13.53125 C41.7850769 14.40394531 41.78890381 15.27664063 41.79284668 16.17578125 C41.7955649 18.01824092 41.78820994 19.86073924 41.77148438 21.703125 C41.75007248 24.52170934 41.77128801 27.33774485 41.796875 30.15625 C41.79423171 31.94792229 41.78910669 33.73959299 41.78125 35.53125 C41.78934692 36.37300781 41.79744385 37.21476562 41.80578613 38.08203125 C41.74958751 41.59256019 41.56811784 43.94019892 39.88867188 47.06054688 C35.60485191 49.44819783 31.32187981 49.10089928 26.5 49.0625 C24.92460449 49.06824036 24.92460449 49.06824036 23.31738281 49.07409668 C21.09829753 49.07681696 18.87918026 49.06944777 16.66015625 49.05273438 C13.26229405 49.03132745 9.86654639 49.05253325 6.46875 49.078125 C4.31249533 49.07548175 2.15624198 49.07035682 0 49.0625 C-1.01674805 49.07059692 -2.03349609 49.07869385 -3.08105469 49.08703613 C-9.91596971 48.99610922 -9.91596971 48.99610922 -13.38867188 47.06054688 C-15.43827108 43.25246802 -15.32226623 39.79530571 -15.28125 35.53125 C-15.2850769 34.65855469 -15.28890381 33.78585937 -15.29284668 32.88671875 C-15.2955649 31.04425908 -15.28820994 29.20176076 -15.27148438 27.359375 C-15.25007248 24.54079066 -15.27128801 21.72475515 -15.296875 18.90625 C-15.29423171 17.11457771 -15.28910669 15.32290701 -15.28125 13.53125 C-15.28934692 12.68949219 -15.29744385 11.84773438 -15.30578613 10.98046875 C-15.24958751 7.46993981 -15.06811784 5.12230108 -13.38867188 2.00195312 C-9.10485191 -0.38569783 -4.82187981 -0.03839928 0 0 Z M1.25 16.53125 C1.25 21.81125 1.25 27.09125 1.25 32.53125 C9.17 32.53125 17.09 32.53125 25.25 32.53125 C25.25 27.25125 25.25 21.97125 25.25 16.53125 C17.33 16.53125 9.41 16.53125 1.25 16.53125 Z " fill="#000000" transform="translate(70.75,391.46875)"/>
<path d="M0 0 C1.05026367 -0.0038269 2.10052734 -0.00765381 3.18261719 -0.01159668 C5.40170247 -0.01431696 7.62081974 -0.00694777 9.83984375 0.00976562 C13.23770595 0.03117255 16.63345361 0.00996675 20.03125 -0.015625 C22.18750467 -0.01298175 24.34375802 -0.00785682 26.5 0 C27.51674805 -0.00809692 28.53349609 -0.01619385 29.58105469 -0.02453613 C36.41596971 0.06639078 36.41596971 0.06639078 39.88867188 2.00195312 C41.93827108 5.81003198 41.82226623 9.26719429 41.78125 13.53125 C41.7850769 14.40394531 41.78890381 15.27664063 41.79284668 16.17578125 C41.7955649 18.01824092 41.78820994 19.86073924 41.77148438 21.703125 C41.75007248 24.52170934 41.77128801 27.33774485 41.796875 30.15625 C41.79423171 31.94792229 41.78910669 33.73959299 41.78125 35.53125 C41.78934692 36.37300781 41.79744385 37.21476562 41.80578613 38.08203125 C41.74958751 41.59256019 41.56811784 43.94019892 39.88867188 47.06054688 C35.60485191 49.44819783 31.32187981 49.10089928 26.5 49.0625 C24.92460449 49.06824036 24.92460449 49.06824036 23.31738281 49.07409668 C21.09829753 49.07681696 18.87918026 49.06944777 16.66015625 49.05273438 C13.26229405 49.03132745 9.86654639 49.05253325 6.46875 49.078125 C4.31249533 49.07548175 2.15624198 49.07035682 0 49.0625 C-1.01674805 49.07059692 -2.03349609 49.07869385 -3.08105469 49.08703613 C-9.91596971 48.99610922 -9.91596971 48.99610922 -13.38867188 47.06054688 C-15.43827108 43.25246802 -15.32226623 39.79530571 -15.28125 35.53125 C-15.2850769 34.65855469 -15.28890381 33.78585937 -15.29284668 32.88671875 C-15.2955649 31.04425908 -15.28820994 29.20176076 -15.27148438 27.359375 C-15.25007248 24.54079066 -15.27128801 21.72475515 -15.296875 18.90625 C-15.29423171 17.11457771 -15.28910669 15.32290701 -15.28125 13.53125 C-15.28934692 12.68949219 -15.29744385 11.84773438 -15.30578613 10.98046875 C-15.24958751 7.46993981 -15.06811784 5.12230108 -13.38867188 2.00195312 C-9.10485191 -0.38569783 -4.82187981 -0.03839928 0 0 Z M1.25 16.53125 C1.25 21.81125 1.25 27.09125 1.25 32.53125 C9.17 32.53125 17.09 32.53125 25.25 32.53125 C25.25 27.25125 25.25 21.97125 25.25 16.53125 C17.33 16.53125 9.41 16.53125 1.25 16.53125 Z " fill="#000000" transform="translate(414.75,327.46875)"/>
<path d="M0 0 C1.05026367 -0.0038269 2.10052734 -0.00765381 3.18261719 -0.01159668 C5.40170247 -0.01431696 7.62081974 -0.00694777 9.83984375 0.00976562 C13.23770595 0.03117255 16.63345361 0.00996675 20.03125 -0.015625 C22.18750467 -0.01298175 24.34375802 -0.00785682 26.5 0 C27.51674805 -0.00809692 28.53349609 -0.01619385 29.58105469 -0.02453613 C36.41596971 0.06639078 36.41596971 0.06639078 39.88867188 2.00195312 C41.93827108 5.81003198 41.82226623 9.26719429 41.78125 13.53125 C41.7850769 14.40394531 41.78890381 15.27664063 41.79284668 16.17578125 C41.7955649 18.01824092 41.78820994 19.86073924 41.77148438 21.703125 C41.75007248 24.52170934 41.77128801 27.33774485 41.796875 30.15625 C41.79423171 31.94792229 41.78910669 33.73959299 41.78125 35.53125 C41.78934692 36.37300781 41.79744385 37.21476562 41.80578613 38.08203125 C41.74958751 41.59256019 41.56811784 43.94019892 39.88867188 47.06054688 C35.60485191 49.44819783 31.32187981 49.10089928 26.5 49.0625 C24.92460449 49.06824036 24.92460449 49.06824036 23.31738281 49.07409668 C21.09829753 49.07681696 18.87918026 49.06944777 16.66015625 49.05273438 C13.26229405 49.03132745 9.86654639 49.05253325 6.46875 49.078125 C4.31249533 49.07548175 2.15624198 49.07035682 0 49.0625 C-1.01674805 49.07059692 -2.03349609 49.07869385 -3.08105469 49.08703613 C-9.91596971 48.99610922 -9.91596971 48.99610922 -13.38867188 47.06054688 C-15.43827108 43.25246802 -15.32226623 39.79530571 -15.28125 35.53125 C-15.2850769 34.65855469 -15.28890381 33.78585937 -15.29284668 32.88671875 C-15.2955649 31.04425908 -15.28820994 29.20176076 -15.27148438 27.359375 C-15.25007248 24.54079066 -15.27128801 21.72475515 -15.296875 18.90625 C-15.29423171 17.11457771 -15.28910669 15.32290701 -15.28125 13.53125 C-15.28934692 12.68949219 -15.29744385 11.84773438 -15.30578613 10.98046875 C-15.24958751 7.46993981 -15.06811784 5.12230108 -13.38867188 2.00195312 C-9.10485191 -0.38569783 -4.82187981 -0.03839928 0 0 Z M1.25 16.53125 C1.25 21.81125 1.25 27.09125 1.25 32.53125 C9.17 32.53125 17.09 32.53125 25.25 32.53125 C25.25 27.25125 25.25 21.97125 25.25 16.53125 C17.33 16.53125 9.41 16.53125 1.25 16.53125 Z " fill="#000000" transform="translate(70.75,327.46875)"/>
<path d="M0 0 C1.05026367 -0.0038269 2.10052734 -0.00765381 3.18261719 -0.01159668 C5.40170247 -0.01431696 7.62081974 -0.00694777 9.83984375 0.00976562 C13.23770595 0.03117255 16.63345361 0.00996675 20.03125 -0.015625 C22.18750467 -0.01298175 24.34375802 -0.00785682 26.5 0 C27.51674805 -0.00809692 28.53349609 -0.01619385 29.58105469 -0.02453613 C36.41596971 0.06639078 36.41596971 0.06639078 39.88867188 2.00195312 C41.93827108 5.81003198 41.82226623 9.26719429 41.78125 13.53125 C41.7850769 14.40394531 41.78890381 15.27664063 41.79284668 16.17578125 C41.7955649 18.01824092 41.78820994 19.86073924 41.77148438 21.703125 C41.75007248 24.52170934 41.77128801 27.33774485 41.796875 30.15625 C41.79423171 31.94792229 41.78910669 33.73959299 41.78125 35.53125 C41.78934692 36.37300781 41.79744385 37.21476562 41.80578613 38.08203125 C41.74958751 41.59256019 41.56811784 43.94019892 39.88867188 47.06054688 C35.60485191 49.44819783 31.32187981 49.10089928 26.5 49.0625 C24.92460449 49.06824036 24.92460449 49.06824036 23.31738281 49.07409668 C21.09829753 49.07681696 18.87918026 49.06944777 16.66015625 49.05273438 C13.26229405 49.03132745 9.86654639 49.05253325 6.46875 49.078125 C4.31249533 49.07548175 2.15624198 49.07035682 0 49.0625 C-1.01674805 49.07059692 -2.03349609 49.07869385 -3.08105469 49.08703613 C-9.91596971 48.99610922 -9.91596971 48.99610922 -13.38867188 47.06054688 C-15.43827108 43.25246802 -15.32226623 39.79530571 -15.28125 35.53125 C-15.2850769 34.65855469 -15.28890381 33.78585937 -15.29284668 32.88671875 C-15.2955649 31.04425908 -15.28820994 29.20176076 -15.27148438 27.359375 C-15.25007248 24.54079066 -15.27128801 21.72475515 -15.296875 18.90625 C-15.29423171 17.11457771 -15.28910669 15.32290701 -15.28125 13.53125 C-15.28934692 12.68949219 -15.29744385 11.84773438 -15.30578613 10.98046875 C-15.24958751 7.46993981 -15.06811784 5.12230108 -13.38867188 2.00195312 C-9.10485191 -0.38569783 -4.82187981 -0.03839928 0 0 Z M1.25 16.53125 C1.25 21.81125 1.25 27.09125 1.25 32.53125 C9.17 32.53125 17.09 32.53125 25.25 32.53125 C25.25 27.25125 25.25 21.97125 25.25 16.53125 C17.33 16.53125 9.41 16.53125 1.25 16.53125 Z " fill="#000000" transform="translate(414.75,263.46875)"/>
<path d="M0 0 C1.05026367 -0.0038269 2.10052734 -0.00765381 3.18261719 -0.01159668 C5.40170247 -0.01431696 7.62081974 -0.00694777 9.83984375 0.00976562 C13.23770595 0.03117255 16.63345361 0.00996675 20.03125 -0.015625 C22.18750467 -0.01298175 24.34375802 -0.00785682 26.5 0 C27.51674805 -0.00809692 28.53349609 -0.01619385 29.58105469 -0.02453613 C36.41596971 0.06639078 36.41596971 0.06639078 39.88867188 2.00195312 C41.93827108 5.81003198 41.82226623 9.26719429 41.78125 13.53125 C41.7850769 14.40394531 41.78890381 15.27664063 41.79284668 16.17578125 C41.7955649 18.01824092 41.78820994 19.86073924 41.77148438 21.703125 C41.75007248 24.52170934 41.77128801 27.33774485 41.796875 30.15625 C41.79423171 31.94792229 41.78910669 33.73959299 41.78125 35.53125 C41.78934692 36.37300781 41.79744385 37.21476562 41.80578613 38.08203125 C41.74958751 41.59256019 41.56811784 43.94019892 39.88867188 47.06054688 C35.60485191 49.44819783 31.32187981 49.10089928 26.5 49.0625 C24.92460449 49.06824036 24.92460449 49.06824036 23.31738281 49.07409668 C21.09829753 49.07681696 18.87918026 49.06944777 16.66015625 49.05273438 C13.26229405 49.03132745 9.86654639 49.05253325 6.46875 49.078125 C4.31249533 49.07548175 2.15624198 49.07035682 0 49.0625 C-1.01674805 49.07059692 -2.03349609 49.07869385 -3.08105469 49.08703613 C-9.91596971 48.99610922 -9.91596971 48.99610922 -13.38867188 47.06054688 C-15.43827108 43.25246802 -15.32226623 39.79530571 -15.28125 35.53125 C-15.2850769 34.65855469 -15.28890381 33.78585937 -15.29284668 32.88671875 C-15.2955649 31.04425908 -15.28820994 29.20176076 -15.27148438 27.359375 C-15.25007248 24.54079066 -15.27128801 21.72475515 -15.296875 18.90625 C-15.29423171 17.11457771 -15.28910669 15.32290701 -15.28125 13.53125 C-15.28934692 12.68949219 -15.29744385 11.84773438 -15.30578613 10.98046875 C-15.24958751 7.46993981 -15.06811784 5.12230108 -13.38867188 2.00195312 C-9.10485191 -0.38569783 -4.82187981 -0.03839928 0 0 Z M1.25 16.53125 C1.25 21.81125 1.25 27.09125 1.25 32.53125 C9.17 32.53125 17.09 32.53125 25.25 32.53125 C25.25 27.25125 25.25 21.97125 25.25 16.53125 C17.33 16.53125 9.41 16.53125 1.25 16.53125 Z " fill="#000000" transform="translate(70.75,263.46875)"/>
<path d="M0 0 C0.79339783 0.00565979 1.58679565 0.01131958 2.40423584 0.01715088 C4.93156973 0.03949353 7.45747165 0.08968324 9.984375 0.140625 C11.70050032 0.16069286 13.41664792 0.17894313 15.1328125 0.1953125 C19.33432513 0.23594608 23.53275267 0.31423187 27.734375 0.390625 C27.734375 5.670625 27.734375 10.950625 27.734375 16.390625 C19.814375 16.390625 11.894375 16.390625 3.734375 16.390625 C3.734375 19.030625 3.734375 21.670625 3.734375 24.390625 C11.654375 24.390625 19.574375 24.390625 27.734375 24.390625 C27.734375 29.670625 27.734375 34.950625 27.734375 40.390625 C19.814375 40.390625 11.894375 40.390625 3.734375 40.390625 C3.734375 43.030625 3.734375 45.670625 3.734375 48.390625 C11.654375 48.390625 19.574375 48.390625 27.734375 48.390625 C27.734375 53.670625 27.734375 58.950625 27.734375 64.390625 C22.67975272 64.48252722 17.62803477 64.56213721 12.57324219 64.61035156 C10.85439221 64.63045128 9.13561048 64.65773589 7.41699219 64.69238281 C4.94449011 64.74097534 2.4728929 64.76360935 0 64.78125 C-1.15021637 64.81221771 -1.15021637 64.81221771 -2.32366943 64.84381104 C-5.67256718 64.84521542 -7.76312415 64.77451521 -10.46820068 62.70794678 C-12.67530528 59.86244642 -12.77153755 58.42933679 -12.78320312 54.859375 C-12.79581177 53.75142578 -12.80842041 52.64347656 -12.82141113 51.50195312 C-12.81331421 50.31021484 -12.80521729 49.11847656 -12.796875 47.890625 C-12.8007019 46.66279297 -12.80452881 45.43496094 -12.80847168 44.16992188 C-12.81119342 41.57421041 -12.80381411 38.97847164 -12.78710938 36.3828125 C-12.76570575 32.40562901 -12.78690463 28.43025218 -12.8125 24.453125 C-12.80985677 21.93228767 -12.80473191 19.41145147 -12.796875 16.890625 C-12.80497192 15.69888672 -12.81306885 14.50714844 -12.82141113 13.27929688 C-12.80880249 12.17134766 -12.79619385 11.06339844 -12.78320312 9.921875 C-12.78002075 8.94798828 -12.77683838 7.97410156 -12.77355957 6.97070312 C-11.39431777 -0.03522204 -6.08430378 -0.16381002 0 0 Z " fill="#000000" transform="translate(308.265625,31.609375)"/>
<path d="M0 0 C15.84 0 31.68 0 48 0 C48 5.28 48 10.56 48 16 C42.72 16 37.44 16 32 16 C32 31.84 32 47.68 32 64 C26.72 64 21.44 64 16 64 C16 48.16 16 32.32 16 16 C10.72 16 5.44 16 0 16 C0 10.72 0 5.44 0 0 Z " fill="#000000" transform="translate(240,32)"/>
<path d="M0 0 C5.28 0 10.56 0 16 0 C16 15.84 16 31.68 16 48 C23.92 48 31.84 48 40 48 C40 53.28 40 58.56 40 64 C34.94537772 64.09190222 29.89365977 64.17151221 24.83886719 64.21972656 C23.12001721 64.23982628 21.40123548 64.26711089 19.68261719 64.30175781 C17.21011511 64.35035034 14.7385179 64.37298435 12.265625 64.390625 C11.11540863 64.42159271 11.11540863 64.42159271 9.94195557 64.45318604 C6.60971728 64.45458343 4.50128273 64.37615617 1.79345703 62.34423828 C-0.48506013 59.36597504 -0.48539068 57.76149112 -0.45410156 54.03808594 C-0.45379944 52.83714294 -0.45349731 51.63619995 -0.45318604 50.39886475 C-0.43254089 49.10708313 -0.41189575 47.81530151 -0.390625 46.484375 C-0.38316071 45.14488571 -0.37746866 43.80538548 -0.37347412 42.46588135 C-0.35823213 38.94748564 -0.31896418 35.42975485 -0.2746582 31.91162109 C-0.23367364 28.31877639 -0.2154564 24.7258238 -0.1953125 21.1328125 C-0.15246729 14.08824433 -0.0821301 7.04423564 0 0 Z " fill="#000000" transform="translate(344,32)"/>
</svg>
