<?xml version="1.0" encoding="UTF-8"?>
<svg version="1.1" xmlns="http://www.w3.org/2000/svg" width="512" height="512">
<path d="M0 0 C4.3344446 3.90100014 5.69207183 8.81661224 6.23974609 14.47851562 C7.92267121 49.28816366 -5.89555535 81.09547027 -26 109 C-26.43393066 109.60231445 -26.86786133 110.20462891 -27.31494141 110.82519531 C-34.04449193 120.11035902 -41.17309294 128.96196664 -48.74560547 137.57080078 C-49.77775426 138.74678346 -50.79865793 139.93262635 -51.81640625 141.12109375 C-63.58081124 154.83149054 -76.13245407 168.49949883 -89.921875 180.203125 C-93.13837014 182.98430501 -96.22886889 185.90325861 -99.34326172 188.79760742 C-103.68392446 192.79341256 -108.23152141 196.44043484 -112.91796875 200.02734375 C-115.2741557 202.25975352 -115.64817973 202.84032051 -116 206 C-115.51286821 208.55919658 -114.94586545 210.98513407 -114.25952148 213.49047852 C-113.96089738 214.62545698 -113.96089738 214.62545698 -113.65624046 215.7833643 C-112.98695459 218.31772069 -112.30400464 220.84819022 -111.62109375 223.37890625 C-111.14122146 225.18502812 -110.66221186 226.99137938 -110.18400574 228.79794312 C-108.88443673 233.69799841 -107.57315422 238.59485168 -106.25989532 243.4912529 C-104.87959064 248.64602047 -103.51032032 253.80371641 -102.14013672 258.96118164 C-99.87679297 267.47584219 -97.60763905 275.98893342 -95.33447266 284.50097656 C-92.25452268 296.03600872 -89.19180408 307.57554796 -86.13671875 319.1171875 C-85.66967058 320.88113618 -85.20261435 322.64508272 -84.73554993 324.4090271 C-83.13897018 330.43925306 -81.54286425 336.46960442 -79.94678116 342.49996185 C-78.38201913 348.41165337 -76.81646248 354.32313383 -75.25 360.234375 C-75.03252798 361.05515156 -74.81505596 361.87592812 -74.59099388 362.72157669 C-71.73099196 373.51262769 -68.85067974 384.29804612 -65.95181274 395.07872009 C-64.44555468 400.68073433 -62.94551449 406.28440765 -61.44702721 411.88850498 C-60.25579177 416.34108459 -59.05599201 420.79123257 -57.84930801 425.23964882 C-57.29302565 427.29650227 -56.74131098 429.35451492 -56.19165039 431.41314697 C-55.52970571 433.89229414 -54.86065588 436.36956059 -54.18286133 438.84442139 C-50.44179842 452.97412422 -50.44179842 452.97412422 -53.25332642 458.43383789 C-55.08165534 461.11996565 -57.03311078 463.28030777 -59.33203125 465.57495117 C-60.20303467 466.44903122 -61.07403809 467.32311127 -61.97143555 468.22367859 C-62.91827724 469.16362312 -63.86530316 470.10338211 -64.8125 471.04296875 C-65.7878814 472.01715674 -66.76289199 472.99171612 -67.73754883 473.96662903 C-69.77540308 476.00292364 -71.81655897 478.03582809 -73.86035156 480.06616211 C-76.47820857 482.66699622 -79.08940081 485.27439832 -81.69837952 487.88413525 C-83.70895197 489.8944357 -85.72212063 491.90211884 -87.73617554 493.90892982 C-88.700018 494.86959415 -89.66325956 495.83086177 -90.62588501 496.79274559 C-91.9707365 498.13542639 -93.31927183 499.47441433 -94.66796875 500.81323242 C-95.43391357 501.57536545 -96.1998584 502.33749847 -96.98901367 503.12272644 C-100.57566456 506.47089683 -102.89645057 507.24694993 -107.76953125 507.4609375 C-112.07497317 506.57119644 -115.14567433 504.09604632 -117.80859375 500.6796875 C-118.61490234 499.29136719 -118.61490234 499.29136719 -119.4375 497.875 C-119.758396 497.33061279 -120.07929199 496.78622559 -120.40991211 496.2253418 C-121.62136972 494.15851258 -122.80980028 492.07914376 -124 490 C-125.10598329 488.0919912 -126.21282326 486.18447883 -127.3203125 484.27734375 C-130.56293742 478.68202295 -133.78751786 473.07645312 -137.0078125 467.46826172 C-140.18684118 461.93379096 -143.37391127 456.40396711 -146.5625 450.875 C-147.18326416 449.79839111 -147.80402832 448.72178223 -148.44360352 447.61254883 C-153.17953513 439.40569979 -157.94976679 431.21925925 -162.73071289 423.03857422 C-167.65051282 414.61430661 -172.52522138 406.16446104 -177.39453125 397.7109375 C-181.57349128 390.4604851 -185.77740506 383.22511731 -190 376 C-194.86102973 367.68248186 -199.69138101 359.34792636 -204.5 351 C-209.50028407 342.32129364 -214.51767526 333.65290068 -219.5625 325 C-220.12195313 324.03964844 -220.68140625 323.07929688 -221.2578125 322.08984375 C-224.79343293 316.0324314 -228.37745349 310.00582222 -232 304 C-237.7349894 308.10391113 -242.91602558 312.55708315 -248 317.4375 C-252.62816846 321.85324276 -257.30112365 326.18058453 -262.13378906 330.37231445 C-264.75790745 332.66103728 -267.31555633 335.01407274 -269.875 337.375 C-276.0131436 343.02349112 -282.2116808 348.60273311 -288.421875 354.171875 C-293.01448104 358.29644476 -297.58179449 362.44621893 -302.125 366.625 C-305.36217216 369.60218281 -308.61137729 372.55952856 -311.9375 375.4375 C-316.16937159 379.10038045 -320.25810138 382.91550609 -324.34545898 386.73803711 C-324.87469971 387.23053955 -325.40394043 387.72304199 -325.94921875 388.23046875 C-326.41674561 388.66770264 -326.88427246 389.10493652 -327.3659668 389.55541992 C-329 391 -329 391 -331.56388855 392.69393921 C-334.24455669 394.79455573 -334.24455669 394.79455573 -334.61904907 397.9150238 C-334.6154689 399.61115562 -334.6154689 399.61115562 -334.61181641 401.34155273 C-334.62675644 403.26891518 -334.62675644 403.26891518 -334.64199829 405.23521423 C-334.62859671 406.63467481 -334.61511619 408.03413464 -334.6015625 409.43359375 C-334.60706438 410.87322692 -334.61519054 412.31285225 -334.62582397 413.75245667 C-334.64870535 417.54006833 -334.64449284 421.32710283 -334.63201904 425.11474609 C-334.61371138 431.17314974 -334.62371758 437.2312143 -334.65787888 443.28953743 C-334.66397109 445.40190061 -334.65073775 447.51353344 -334.63589478 449.62583923 C-334.64137833 451.55792992 -334.64137833 451.55792992 -334.64697266 453.52905273 C-334.64299469 454.66060287 -334.63901672 455.79215302 -334.63491821 456.95799255 C-335.80984179 466.74792561 -346.9634098 473.98337157 -354 480 C-355.11239122 480.96436866 -356.22433298 481.92925589 -357.3359375 482.89453125 C-375.92572051 499 -375.92572051 499 -381 499 C-389.093393 497.56117458 -394.65065727 490.47327348 -399.91796875 484.65234375 C-400.78099609 483.71841797 -401.64402344 482.78449219 -402.53320312 481.82226562 C-404.31148526 479.88957783 -406.06156672 477.93058041 -407.78320312 475.94726562 C-412.58424329 470.69690936 -412.58424329 470.69690936 -419.14868164 468.73632812 C-422.54989461 469.23355923 -425.70327494 470.03208408 -429 471 C-431.0298557 471.4422501 -433.06241285 471.87230882 -435.09765625 472.2890625 C-438.08481045 472.95244096 -441.06860755 473.62642203 -444.04882812 474.3203125 C-452.049235 476.07841368 -460.89015625 477.87466557 -468.5625 474.375 C-471.42716996 471.58378312 -472.7921805 469.83660313 -474 466 C-473.97338282 456.10347901 -471.26056493 445.98150771 -469.43310547 436.27880859 C-469.00799736 434.01267365 -468.59319231 431.74483905 -468.1796875 429.4765625 C-468.04642059 428.78486969 -467.91315369 428.09317688 -467.77584839 427.38052368 C-466.81027383 422.570238 -466.81027383 422.570238 -468 418 C-469.85486972 415.92498948 -471.70842364 414.01444527 -473.71484375 412.09765625 C-474.57125206 411.25828773 -474.57125206 411.25828773 -475.44496155 410.40196228 C-477.88411574 408.01178148 -480.3405695 405.63966615 -482.7956543 403.26586914 C-484.58737592 401.52849267 -486.36997628 399.78211962 -488.15234375 398.03515625 C-488.70760239 397.50479263 -489.26286102 396.97442902 -489.83494568 396.42799377 C-494.76413297 391.59325797 -496.1514376 388.01135866 -496.4609375 381.16015625 C-495.17015822 375.11099573 -489.82829319 370.46686629 -485.6875 366.125 C-484.51877715 364.88221915 -483.35080135 363.63873532 -482.18359375 362.39453125 C-481.35190674 361.51015381 -481.35190674 361.51015381 -480.50341797 360.60791016 C-476.74321048 356.58635664 -473.15530726 352.44859281 -469.72265625 348.14453125 C-468.92730469 347.14808594 -468.13195312 346.15164063 -467.3125 345.125 C-466.22388672 343.73667969 -466.22388672 343.73667969 -465.11328125 342.3203125 C-462.24884893 339.17526111 -460.36772217 338.09284813 -456.08738708 337.80227661 C-454.95696487 337.8251474 -453.82654266 337.84801819 -452.66186523 337.87158203 C-451.37630234 337.89044464 -450.09073944 337.90930725 -448.76622009 337.92874146 C-447.73867269 337.94922735 -447.73867269 337.94922735 -446.69036674 337.97012711 C-443.0353807 338.0347398 -439.38007373 338.03920441 -435.72460938 338.0546875 C-431.08481512 338.07818592 -426.44710853 338.11879337 -421.80834961 338.22265625 C-418.0486168 338.30525898 -414.2924658 338.32805342 -410.53190804 338.31283188 C-409.10893086 338.31775815 -407.68584453 338.34389133 -406.26370049 338.39282608 C-400.04930798 338.59792238 -394.52571164 338.69875362 -389.72805786 334.38470459 C-386.87504433 331.45304409 -384.44101076 328.27842874 -382 325 C-380.805157 323.61326114 -379.60034314 322.23486346 -378.375 320.875 C-377.83359375 320.25109375 -377.2921875 319.6271875 -376.734375 318.984375 C-372.44320048 314.0746528 -368.04197892 309.26125182 -363.671875 304.421875 C-360.25694362 300.63525041 -356.85013474 296.84416383 -353.5 293 C-348.62856797 287.41020011 -343.6410485 281.92465102 -338.671875 276.421875 C-335.25694362 272.63525041 -331.85013474 268.84416383 -328.5 265 C-325.90098248 262.01771722 -323.27185338 259.06493057 -320.625 256.125 C-319.87089844 255.28710938 -319.11679687 254.44921875 -318.33984375 253.5859375 C-316.75550349 251.83496379 -315.16412771 250.09033481 -313.56640625 248.3515625 C-312.38884766 247.06378906 -312.38884766 247.06378906 -311.1875 245.75 C-310.47980469 244.98171875 -309.77210938 244.2134375 -309.04296875 243.421875 C-306.78760667 240.7482144 -304.89061069 237.94000584 -303 235 C-303.57105469 234.67950684 -304.14210938 234.35901367 -304.73046875 234.02880859 C-316.81230557 227.24117889 -328.84327937 220.37559699 -340.80273438 213.37451172 C-348.18517091 209.05381103 -355.587249 204.76846547 -363 200.5 C-372.33871324 195.12100102 -381.65640408 189.707405 -390.9609375 184.26953125 C-398.29283723 179.98777878 -405.64267238 175.73789061 -413 171.5 C-422.33863207 166.1208592 -431.65640317 160.70740553 -440.9609375 155.26953125 C-448.29284018 150.98777706 -455.64293013 146.73834172 -463 142.5 C-466.24032498 140.63113531 -469.48036523 138.76177849 -472.72021484 136.89208984 C-474.94660497 135.60769775 -477.17351082 134.3241993 -479.40087891 133.04150391 C-482.70716912 131.13598292 -486.01018394 129.22489806 -489.3125 127.3125 C-490.31474609 126.73628906 -491.31699219 126.16007813 -492.34960938 125.56640625 C-504.13862623 118.72274754 -504.13862623 118.72274754 -506 115 C-506.34375 112.8984375 -506.34375 112.8984375 -506.5 110.375 C-506.5721875 109.55773437 -506.644375 108.74046875 -506.71875 107.8984375 C-504.75838923 99.99306963 -495.30660121 93.14617395 -489.70703125 87.5390625 C-488.83858078 86.66728363 -487.97013031 85.79550476 -487.07536316 84.89730835 C-485.25215414 83.06906638 -483.42761463 81.24215036 -481.60180664 79.41650391 C-478.80522226 76.61771653 -476.01675219 73.81100708 -473.22851562 71.00390625 C-471.45101028 69.22346956 -469.67303206 67.44350481 -467.89453125 65.6640625 C-467.0621846 64.82453033 -466.22983795 63.98499817 -465.37226868 63.12002563 C-464.59433456 62.34516815 -463.81640045 61.57031067 -463.01489258 60.77197266 C-462.33429276 60.08994781 -461.65369293 59.40792297 -460.95246887 58.70523071 C-456.70852117 54.99868764 -453.63847556 54.66167784 -448 55 C-445.78913564 55.4273373 -443.59317136 55.93745173 -441.41674805 56.51513672 C-440.79068161 56.6787759 -440.16461517 56.84241508 -439.51957703 57.01101303 C-437.43137179 57.55906138 -435.34665904 58.11935742 -433.26171875 58.6796875 C-431.74822725 59.07962902 -430.23453398 59.4788076 -428.72065735 59.87728882 C-424.57900045 60.96978857 -420.44026585 62.07301113 -416.30194092 63.17805481 C-411.87677515 64.35769439 -407.44898213 65.52739193 -403.02148438 66.69824219 C-395.37921225 68.72067277 -387.73862603 70.74936944 -380.09912109 72.78222656 C-368.82892517 75.78111384 -357.55587914 78.76917663 -346.2821846 81.75488091 C-337.90048863 83.97490426 -329.51924939 86.19665188 -321.13796997 88.41824722 C-319.04616222 88.97270342 -316.954345 89.5271239 -314.86251831 90.08150864 C-307.65412421 91.99195435 -300.44600722 93.90344127 -293.23828125 95.81640625 C-292.24286945 96.0805879 -291.24745766 96.34476955 -290.22188187 96.61695671 C-277.51045876 99.99175954 -264.80618653 103.39191694 -252.10970688 106.82249832 C-247.56468657 108.04956046 -243.01829554 109.27153652 -238.47190666 110.49351692 C-234.35882363 111.59990399 -230.24851 112.71588409 -226.14016247 113.83972073 C-223.11001224 114.6658198 -220.07620353 115.47828113 -217.04296875 116.29296875 C-215.98031296 116.58735336 -214.91765717 116.88173798 -213.82279968 117.18504333 C-212.36980217 117.57140709 -212.36980217 117.57140709 -210.88745117 117.96557617 C-210.05718918 118.19137863 -209.22692719 118.41718109 -208.37150574 118.64982605 C-205.61315232 119.05712151 -203.66696805 118.7887493 -201 118 C-198.6964012 116.00073442 -198.6964012 116.00073442 -196.625 113.4375 C-195.84125 112.52613281 -195.0575 111.61476563 -194.25 110.67578125 C-193.13625 109.35126953 -193.13625 109.35126953 -192 108 C-190.87826455 106.70549726 -189.75352887 105.41358464 -188.625 104.125 C-187.76841797 103.14660156 -187.76841797 103.14660156 -186.89453125 102.1484375 C-179.46207513 93.71987901 -171.74677346 85.64574408 -163.8125 77.6875 C-162.96921143 76.83961914 -162.12592285 75.99173828 -161.25708008 75.11816406 C-156.87231114 70.74415371 -152.42005515 66.51822187 -147.72241211 62.48168945 C-145.55960846 60.62115715 -143.47062699 58.6855973 -141.375 56.75 C-135.76221769 51.69336228 -129.87322288 47.04639407 -123.8828125 42.45019531 C-121.99577345 40.99674459 -120.12285235 39.52635312 -118.25 38.0546875 C-92.03727942 17.67998189 -34.71216477 -18.95466892 0 0 Z M-54 30 C-52.67066975 38.62554058 -46.85358108 44.77486166 -40.3828125 50.26953125 C-36.55640517 53.04838116 -31.86232056 56 -27 56 C-22.16132123 43.88483483 -19.64083806 35.0894575 -20 22 C-31.86270098 21.66055524 -43.07740901 25.80028036 -54 30 Z M-128 81 C-128.81355957 81.72896484 -128.81355957 81.72896484 -129.64355469 82.47265625 C-135.85117439 88.03941601 -141.83752707 93.78838746 -147.69140625 99.7265625 C-149.79013734 101.79333322 -151.94238623 103.72031615 -154.1875 105.625 C-157.43131613 108.41094149 -160.19979295 111.38537204 -162.9609375 114.64453125 C-165.02570955 117.02969896 -167.15693715 119.33558596 -169.31103516 121.63964844 C-175.15065207 127.8858325 -180.646225 134.32902639 -186 141 C-191.53398058 147.84466019 -191.53398058 147.84466019 -195 149 C-201.33239587 149.56227084 -206.98915409 148.54512808 -213.06787109 146.87060547 C-213.93247766 146.64213299 -214.79708424 146.41366051 -215.68789101 146.17826462 C-218.55266149 145.41843203 -221.41291541 144.64284672 -224.2734375 143.8671875 C-226.32004846 143.32106154 -228.36693032 142.77594994 -230.4140625 142.23178101 C-235.92482625 140.76406431 -241.43189255 139.2828953 -246.9384079 137.79933167 C-252.70495755 136.24831709 -258.47490314 134.71004756 -264.24462891 133.17089844 C-272.47864011 130.97329133 -280.71165068 128.77200916 -288.94331932 126.56564331 C-302.37286398 122.96619706 -315.80852491 119.39055797 -329.25 115.8359375 C-330.15091873 115.59761641 -331.05183746 115.35929531 -331.98005676 115.11375237 C-337.25632943 113.71804368 -342.53278025 112.32300956 -347.80929565 110.92821884 C-355.34208588 108.93699945 -362.87467238 106.9450206 -370.40625 104.94921875 C-371.19835373 104.73932878 -371.99045746 104.52943882 -372.80656433 104.31318855 C-383.32238999 101.52502759 -393.82755423 98.6998977 -404.32334518 95.8372612 C-406.37060027 95.27924817 -408.41821143 94.72256397 -410.4659729 94.16641235 C-411.11993231 93.98877413 -411.77389172 93.8111359 -412.44766808 93.6281147 C-413.09093859 93.45338568 -413.7342091 93.27865665 -414.39697266 93.09863281 C-419.22824338 91.78601437 -424.05537689 90.45950447 -428.88037109 89.12402344 C-430.98000199 88.55221549 -433.07976512 87.98089281 -435.1796875 87.41015625 C-436.11486206 87.14685013 -437.05003662 86.88354401 -438.0135498 86.61225891 C-443.97277902 84.97506962 -443.97277902 84.97506962 -450 86 C-446.74444195 88.62322278 -443.32441418 90.47908791 -439.6015625 92.37109375 C-438.97947906 92.68908432 -438.35739563 93.00707489 -437.71646118 93.33470154 C-436.38224 94.01665679 -435.04724379 94.69709746 -433.71154785 95.37615967 C-423.81676384 100.40922581 -413.96079619 105.49356074 -404.25 110.875 C-394.00942721 116.53892904 -383.60065572 121.8583683 -373.18231201 127.18496704 C-363.49715157 132.13932179 -353.88155759 137.18328615 -344.36328125 142.453125 C-336.16056764 146.96894773 -327.83385011 151.2330865 -319.5 155.5 C-309.42191507 160.66003942 -299.40560534 165.89438046 -289.50219727 171.38476562 C-283.88220854 174.4803382 -278.20842876 177.45460072 -272.49609375 180.375 C-271.75042145 180.7565625 -271.00474915 181.138125 -270.23648071 181.53125 C-266.51294023 183.43454979 -262.78551655 185.32973618 -259.05273438 187.21484375 C-257.67961511 187.91392033 -256.30656509 188.61313295 -254.93359375 189.3125 C-253.99440346 189.78212158 -253.99440346 189.78212158 -253.03623962 190.26123047 C-249.32018251 192.16150604 -246.23730629 194.38620965 -243 197 C-242.34 197 -241.68 197 -241 197 C-239.38592503 202.68206878 -238.84800113 208.59582845 -241.4375 214 C-245.01757804 216.79420725 -248.43935059 218.05264819 -253 218 C-260.29706623 216.42657611 -266.7353915 212.67196963 -273.215271 209.10684204 C-276.30495689 207.40709743 -279.40743983 205.7309272 -282.5078125 204.05078125 C-283.13720734 203.7088121 -283.76660217 203.36684296 -284.41506958 203.01451111 C-290.5265277 199.69927717 -296.69534991 196.49859339 -302.875 193.3125 C-310.51309367 189.36565394 -318.09542321 185.3374901 -325.625 181.1875 C-335.16769912 175.93012258 -344.83286097 170.93242286 -354.52612305 165.96081543 C-363.66337222 161.27174579 -372.72300219 156.47163454 -381.71484375 151.5078125 C-389.24158775 147.37089098 -396.86158271 143.42502308 -404.5 139.5 C-413.09926955 135.08105482 -421.65538534 130.60199377 -430.125 125.9375 C-433.74722997 123.95323108 -437.37269944 121.97498359 -441 120 C-442.155 119.37013184 -443.31 118.74026367 -444.5 118.09130859 C-447.5898838 116.41099744 -450.68988426 114.75058571 -453.79632568 113.10110474 C-455.00729 112.45471954 -456.21524511 111.80266222 -457.41998291 111.14474487 C-459.09740407 110.22991297 -460.78677523 109.33709617 -462.4765625 108.4453125 C-463.44674316 107.92469238 -464.41692383 107.40407227 -465.41650391 106.86767578 C-467.96676374 105.71336727 -467.96676374 105.71336727 -470.34521484 106.84716797 C-470.89129395 107.22760254 -471.43737305 107.60803711 -472 108 C-472 108.99 -472 109.98 -472 111 C-471.27748047 111.41137207 -470.55496094 111.82274414 -469.81054688 112.24658203 C-456.15105101 120.02766251 -442.5118608 127.83876716 -428.94335938 135.77783203 C-421.64489594 140.04653955 -414.32693146 144.28036097 -407 148.5 C-397.66132259 153.87906155 -388.34359631 159.29259477 -379.0390625 164.73046875 C-371.70716236 169.01222146 -364.35729193 173.26204691 -357 177.5 C-345.63253651 184.04892296 -334.2943632 190.64679895 -322.96777344 197.26611328 C-318.97954893 199.59618653 -314.98982687 201.92368368 -310.99926758 204.24975586 C-309.01347548 205.40857911 -307.0289179 206.56952068 -305.0456543 207.73266602 C-299.81117745 210.79901125 -294.55589989 213.81900245 -289.26171875 216.78125 C-288.16150391 217.40386719 -287.06128906 218.02648437 -285.92773438 218.66796875 C-283.81794868 219.86084336 -281.70103437 221.04122471 -279.57617188 222.20703125 C-270.7664305 227.21895472 -270.7664305 227.21895472 -269 233 C-268.29123068 238.67015455 -269.61266846 241.63967768 -273 246 C-275.19780488 248.52963514 -277.49550848 250.95466199 -279.8125 253.375 C-281.07641808 254.71139156 -282.33945054 256.04862132 -283.6015625 257.38671875 C-284.19743164 258.01755371 -284.79330078 258.64838867 -285.40722656 259.29833984 C-287.75271573 261.80417361 -289.99898893 264.3879947 -292.23828125 266.98828125 C-295.04105997 270.18879354 -297.93297531 273.30764572 -300.81323242 276.43823242 C-303.72833296 279.60833578 -306.62406136 282.7942046 -309.5 286 C-312.84885073 289.73294831 -316.22965565 293.43445845 -319.625 297.125 C-322.6022264 300.36213091 -325.55952966 303.61137856 -328.4375 306.9375 C-332.01802312 311.06755185 -335.73579762 315.0660407 -339.45019531 319.07519531 C-344.01596642 324.00645654 -348.51744662 328.99297968 -353 334 C-360.89140625 342.80140625 -360.89140625 342.80140625 -364.8359375 347.0859375 C-365.3201416 347.61203613 -365.8043457 348.13813477 -366.30322266 348.68017578 C-367.67469707 350.16829263 -369.04822686 351.65451444 -370.421875 353.140625 C-372.20938851 355.12313998 -373.86656529 357.08546717 -375.515625 359.171875 C-378.67963584 362.77367351 -381.11749689 364.80728945 -385.97471619 365.30451965 C-387.62679832 365.25783394 -387.62679832 365.25783394 -389.31225586 365.21020508 C-390.5680394 365.18481155 -391.82382294 365.15941803 -393.11766052 365.133255 C-393.78452818 365.11385675 -394.45139584 365.0944585 -395.1384716 365.07447243 C-397.97426455 364.99943684 -400.80967955 364.97889213 -403.64628696 364.95473003 C-408.91489799 364.90910172 -414.18103211 364.84205221 -419.44750977 364.68139648 C-438.53433369 363.34819329 -438.53433369 363.34819329 -455.1153717 370.8959198 C-457.73125567 373.75620191 -459.93035244 376.72937524 -462 380 C-462.99429319 381.33759442 -463.99110451 382.67338488 -465 384 C-463.42140174 387.84612073 -460.97344745 390.24153346 -458.02734375 393.1328125 C-457.54423233 393.61072235 -457.06112091 394.0886322 -456.56336975 394.58102417 C-455.02610959 396.10053614 -453.48230674 397.6131639 -451.9375 399.125 C-450.39002523 400.64484559 -448.84404074 402.16613419 -447.30091858 403.69039917 C-445.90429199 405.06918742 -444.50291677 406.44316065 -443.10131836 407.81689453 C-439.80446772 411.24206456 -439.75566836 413.57022853 -439.80859375 418.29003906 C-440.17059732 423.41534478 -441.37013457 428.3730552 -442.5 433.375 C-442.9712866 435.50725342 -443.44015273 437.64004371 -443.90625 439.7734375 C-444.11572266 440.70591309 -444.32519531 441.63838867 -444.54101562 442.59912109 C-445.09388649 445.08371322 -445.09388649 445.08371322 -445 448 C-440.22858114 447.54995745 -435.59917179 446.97276581 -430.9140625 445.95703125 C-429.61082031 445.67762695 -429.61082031 445.67762695 -428.28125 445.39257812 C-426.51538438 445.00694423 -424.75225403 444.60855714 -422.9921875 444.19726562 C-416.37691015 442.8125589 -410.31243068 442.21538799 -404 445 C-399.32045881 448.63723975 -395.34595913 452.79865611 -391.3125 457.125 C-390.20852382 458.27419852 -389.10241799 459.42135519 -387.99414062 460.56640625 C-385.30428051 463.35465424 -382.64479465 466.16899704 -380 469 C-375.87394959 465.48358176 -371.77798672 461.94148804 -367.75 458.3125 C-366.91984375 457.56613281 -366.0896875 456.81976563 -365.234375 456.05078125 C-364.49703125 455.37402344 -363.7596875 454.69726562 -363 454 C-362.46652451 453.5908284 -361.93304901 453.1816568 -361.38340759 452.76008606 C-359.3307145 450.14847938 -359.62830416 448.0767643 -359.63110352 444.7878418 C-359.62422012 443.50608566 -359.61733673 442.22432953 -359.61024475 440.9037323 C-359.6150117 439.87647569 -359.6150117 439.87647569 -359.61987495 438.82846642 C-359.6289888 436.6797568 -359.61875818 434.53191929 -359.60325623 432.383255 C-359.56317102 426.27512989 -359.56194931 420.16707265 -359.56420898 414.05883789 C-359.56426021 410.32045238 -359.5450271 406.58253534 -359.51487541 402.84427834 C-359.50408194 400.73357586 -359.51616277 398.62378026 -359.52870178 396.5131073 C-359.51866623 395.22189468 -359.50863068 393.93068207 -359.49829102 392.6003418 C-359.49845718 391.46799606 -359.49862335 390.33565033 -359.49879456 389.16899109 C-358.66352811 383.8622934 -355.48592816 380.1537821 -351.609375 376.59765625 C-350.98659668 376.02128418 -350.36381836 375.44491211 -349.72216797 374.85107422 C-349.07135254 374.26084473 -348.42053711 373.67061523 -347.75 373.0625 C-347.07469238 372.44133301 -346.39938477 371.82016602 -345.70361328 371.18017578 C-341.88054403 367.674389 -338.01833086 364.21882611 -334.0859375 360.8359375 C-331.17636877 358.27508113 -328.34154434 355.63587983 -325.5 353 C-322.03716632 349.7883665 -318.57351485 346.58897047 -315 343.5 C-310.88795707 339.94316962 -306.9123038 336.24416316 -302.92456055 332.54956055 C-297.99335742 327.98389615 -293.00693471 323.48247674 -288 319 C-282.64060582 314.19472735 -277.30128222 309.36935088 -272 304.5 C-267.49938818 300.36608348 -262.97638853 296.25854124 -258.42578125 292.1796875 C-256.7924607 290.71206614 -255.16494457 289.23796213 -253.54296875 287.7578125 C-251.04602876 285.48500728 -248.5252601 283.24126428 -246 281 C-245.08992187 280.1646875 -244.17984375 279.329375 -243.2421875 278.46875 C-238.43287465 274.23548298 -234.67369509 271.0779812 -228.16796875 270.51171875 C-223.90144695 271.47264708 -220.84319219 273.91823724 -218.19140625 277.3203125 C-217.65386719 278.24585938 -217.11632812 279.17140625 -216.5625 280.125 C-216.2423291 280.66793701 -215.9221582 281.21087402 -215.59228516 281.77026367 C-214.37974734 283.83837211 -213.19059272 285.9191795 -212 288 C-210.88224391 289.93141426 -209.76368936 291.86236655 -208.64453125 293.79296875 C-206.06525751 298.24953394 -203.4949474 302.71113608 -200.9296875 307.17578125 C-197.31270704 313.46598905 -193.6627014 319.73633279 -190 326 C-184.50029688 335.4097575 -179.04550704 344.84470736 -173.60546875 354.2890625 C-169.42650872 361.5395149 -165.22259494 368.77488269 -161 376 C-155.50054464 385.4099033 -150.04550804 394.84470563 -144.60546875 404.2890625 C-139.86152916 412.51974858 -135.08141191 420.72874775 -130.28710938 428.93017578 C-127.17690571 434.25503466 -124.0790771 439.58676795 -121 444.9296875 C-120.66508545 445.51083313 -120.3301709 446.09197876 -119.98510742 446.69073486 C-118.37126114 449.49211183 -116.75903111 452.29440788 -115.1484375 455.09765625 C-111.49910542 461.43977743 -107.78987818 467.740801 -104 474 C-100.87802522 472.6910428 -100.87802522 472.6910428 -99 470 C-99.99836148 467.50361725 -99.99836148 467.50361725 -101.54296875 464.671875 C-102.11587646 463.57375488 -102.68878418 462.47563477 -103.27905273 461.34423828 C-103.91494602 460.14602307 -104.55110187 458.94794716 -105.1875 457.75 C-105.83653309 456.51443013 -106.48504681 455.27858731 -107.13305664 454.04248047 C-111.46062117 445.80974906 -115.89942846 437.6394656 -120.38745117 429.49316406 C-124.89566721 421.27644514 -129.18481646 412.9514335 -133.46798706 404.61627197 C-137.5447805 396.68744808 -141.69370779 388.80734278 -146 381 C-150.98909553 371.95472924 -155.74859812 362.8005935 -160.4692688 353.6137085 C-164.52428092 345.72697816 -168.65131651 337.889316 -172.9375 330.125 C-178.15328025 320.67406304 -183.10381677 311.09829129 -188.02865601 301.493927 C-192.9493351 291.90288232 -197.97768185 282.38325903 -203.1953125 272.94921875 C-205.26475567 269.20508168 -207.32226402 265.45533054 -209.296875 261.66015625 C-209.61495117 261.05179932 -209.93302734 260.44344238 -210.26074219 259.81665039 C-211.67951608 256.33015879 -211.48287931 253.74231466 -211 250 C-209.17092511 246.27150118 -207.60130864 244.41423484 -204.1875 242.0625 C-200.19980361 240.73326787 -198.03999845 240.84571473 -194 242 C-187.98373936 246.00810825 -185.50830766 251.04780183 -182.375 257.4375 C-181.31967368 259.52573397 -180.26233206 261.61295052 -179.203125 263.69921875 C-178.40358398 265.28355713 -178.40358398 265.28355713 -177.58789062 266.89990234 C-175.19589114 271.56989149 -172.66396573 276.15876717 -170.125 280.75 C-164.99261145 290.07769793 -160.0847944 299.51209234 -155.20922852 308.97607422 C-151.58429065 315.99468758 -147.87601772 322.95721718 -144.0625 329.875 C-139.05499451 338.96119947 -134.2743858 348.15515911 -129.53302002 357.38171387 C-124.97645728 366.24331547 -120.2989867 375.02720876 -115.48828125 383.75390625 C-111.54030881 390.94259404 -107.7559956 398.20943212 -104 405.5 C-96.2760386 420.48755423 -88.19962034 435.26862907 -80 450 C-79.34 449.67 -78.68 449.34 -78 449 C-80.53105229 438.05045231 -83.2050426 427.15217451 -86.0703125 416.28515625 C-86.46413938 414.78511695 -86.85780026 413.28503405 -87.25131226 411.78491211 C-88.31653562 407.72678697 -89.3846762 403.66943514 -90.45352173 399.61226273 C-91.13218709 397.0352089 -91.81000563 394.45793379 -92.48754883 391.88058472 C-101.75599673 356.62476232 -111.09698597 321.38807868 -120.4582653 286.15680408 C-121.74119712 281.32838323 -123.02263682 276.4995783 -124.30050659 271.66981506 C-126.75050497 262.41734008 -129.21933604 253.17079266 -131.73908234 243.93703175 C-132.96455834 239.44144511 -134.18068297 234.94335272 -135.39598083 230.44500542 C-135.97943128 228.2955212 -136.56735023 226.14724419 -137.16004944 224.00029182 C-137.98336917 221.01676208 -138.79105015 218.02938098 -139.59570312 215.04077148 C-139.84034302 214.17011236 -140.08498291 213.29945324 -140.33703613 212.40241051 C-143.98860995 198.64850156 -143.98860995 198.64850156 -140.9298172 193.03653622 C-137.40709601 188.5023007 -132.53081669 185.08237774 -128.0703125 181.52734375 C-124.15848 178.30729842 -120.46082793 174.89094558 -116.76733398 171.42504883 C-114.06374803 168.89154317 -111.33020795 166.42419116 -108.5078125 164.0234375 C-102.5753612 158.8559844 -97.06082879 153.24683596 -91.50073242 147.68603516 C-89.57555298 145.76303818 -87.64250969 143.84819426 -85.70898438 141.93359375 C-78.67063233 134.92687411 -72.1434779 127.81320086 -66 120 C-65.11423877 118.94809311 -64.22239741 117.90122339 -63.3203125 116.86328125 C-54.36366556 106.45635874 -46.3221095 95.20821145 -40 83 C-40.95519531 82.53851563 -41.91039062 82.07703125 -42.89453125 81.6015625 C-59.59934706 73.27951122 -70.13967948 62.02465735 -78 45 C-93.01583101 45 -117.24792436 71.28524188 -128 81 Z " fill="#000000" transform="translate(506,4)"/>
</svg>
