<?xml version="1.0" encoding="UTF-8"?>
<svg version="1.1" xmlns="http://www.w3.org/2000/svg" width="512" height="512">
<path d="M0 0 C6.09618123 4.73779302 11.44138626 10.09673552 16.75 15.6875 C20.59552261 14.13161039 22.77073958 11.70654659 25.5625 8.6875 C43.12638645 -9.50549567 69.65828015 -20.95288048 94.859375 -21.61328125 C97.40617964 -21.63261152 99.95314604 -21.63606561 102.5 -21.625 C103.16363556 -21.62317719 103.82727112 -21.62135437 104.51101685 -21.61947632 C114.30834536 -21.57413404 123.3224143 -21.14192122 132.75 -18.3125 C133.94496094 -17.98378906 135.13992188 -17.65507812 136.37109375 -17.31640625 C166.06191019 -8.38753429 189.19958281 12.14441543 204 39.0625 C211.26581404 52.8257647 215.57583346 68.17955328 216 83.75 C216.19611292 88.04922023 216.19611292 88.04922023 218.29296875 91.65234375 C220.14882687 93.20130163 220.14882687 93.20130163 222.09375 94.4765625 C224.37508221 96.14451765 225.04009455 98.00563496 225.75 100.6875 C226.72582031 100.36652344 227.70164062 100.04554687 228.70703125 99.71484375 C238.7412821 96.86915945 250.68503387 97.4342064 260.046875 101.984375 C264.78273617 104.96824128 269.03036684 108.49879806 272.75 112.6875 C272.75 113.3475 272.75 114.0075 272.75 114.6875 C273.99394531 114.64109375 275.23789062 114.5946875 276.51953125 114.546875 C292.5770777 114.12388313 303.71723524 117.26651361 315.875 128.1875 C326.13462814 138.79665455 328.23383125 151.56333506 328.02734375 165.6796875 C327.56753107 177.99168667 320.93698062 188.34582688 312.234375 196.76171875 C305.20777892 202.20843552 296.29431837 206.90538729 287.2741394 206.73805237 C286.38277786 206.72471863 285.49141632 206.71138489 284.57304382 206.69764709 C283.60260635 206.67826584 282.63216888 206.65888458 281.63232422 206.63891602 C279.5013844 206.60616685 277.37043269 206.57418487 275.23947144 206.54286194 C274.10997952 206.52521349 272.98048759 206.50756504 271.81676865 206.48938179 C264.57372276 206.39044073 257.32998445 206.36607345 250.08639336 206.33178806 C243.72294451 206.29748187 237.36233983 206.23430898 231 206.1081543 C224.841248 205.98751736 218.68636528 205.94543996 212.52649307 205.95622063 C210.18436982 205.9464034 207.84218269 205.90839425 205.50100327 205.84118843 C193.5480641 205.03939836 193.5480641 205.03939836 182.81686592 209.21371841 C179.56762419 212.91969326 177.48104958 217.03645856 175.62869644 221.57499504 C174.44968109 224.40950722 173.02811604 227.09197083 171.59515667 229.8045702 C170.24314317 232.39458759 168.98565646 235.02741599 167.7230835 237.66186523 C166.7414241 239.70535216 165.74542883 241.74121589 164.74462891 243.77539062 C162.67175893 247.99021173 160.6150355 252.21274487 158.5625 256.4375 C158.19527832 257.19272949 157.82805664 257.94795898 157.44970703 258.72607422 C152.07927857 269.77929987 146.8397188 280.88322113 141.7043457 292.04785156 C136.9970386 302.24398499 132.08608489 312.33557062 127.15655518 322.42562866 C121.64497169 333.71245228 116.2835572 345.05736687 111.02856445 356.46582031 C107.42039183 364.2873025 103.70554249 372.03532325 99.75 379.6875 C100.35714844 379.81769531 100.96429688 379.94789063 101.58984375 380.08203125 C105.68712789 381.23045628 108.11458 383.81105862 110.5625 387.1875 C112.49043394 392.8698316 112.93705146 399.10719964 111.0234375 404.87890625 C108.99468029 408.69725823 106.42576517 411.46494432 102.75 413.6875 C100.42405082 414.06896557 98.09034979 414.40764575 95.75 414.6875 C95.7699855 415.5871347 95.7699855 415.5871347 95.79037476 416.50494385 C95.92407836 422.79995064 96.01400571 429.09454822 96.07958984 435.390625 C96.10959036 437.73389088 96.15040491 440.07704611 96.20263672 442.41992188 C96.77033614 468.55635786 96.77033614 468.55635786 88.12524414 478.56933594 C80.84629355 485.5481996 72.40207005 487.28538923 62.63745117 487.23681641 C61.56301254 487.24703827 60.48857391 487.25726013 59.38157654 487.26779175 C55.85180996 487.29544926 52.3228304 487.2936804 48.79296875 487.2890625 C46.32350885 487.29684436 43.8540516 487.30551533 41.38459778 487.31503296 C36.21586418 487.32992886 31.04740387 487.32939613 25.87866211 487.31884766 C19.27808045 487.30726787 12.67862297 487.34110917 6.07822704 487.387537 C0.97957395 487.41710447 -4.11881137 487.4187425 -9.21753502 487.41251755 C-11.64984041 487.41353952 -14.08216167 487.42393103 -16.51438332 487.44414139 C-42.19406593 487.63133675 -42.19406593 487.63133675 -52.13337708 479.06411743 C-59.35936333 471.51409501 -60.83979772 462.97425161 -60.640625 452.87109375 C-60.63496521 451.77402603 -60.62930542 450.67695831 -60.62347412 449.54664612 C-60.60123774 446.07230394 -60.55106382 442.59902593 -60.5 439.125 C-60.4799186 436.75717644 -60.46167072 434.38933658 -60.4453125 432.02148438 C-60.40141484 426.24313179 -60.33463105 420.46539195 -60.25 414.6875 C-61.88195312 414.50767578 -61.88195312 414.50767578 -63.546875 414.32421875 C-69.10084798 413.36926348 -71.86042824 410.58658141 -75.125 406.125 C-76.98689242 400.43588427 -77.38010733 394.26936561 -75.55859375 388.49609375 C-73.37785426 384.27148126 -70.36051671 381.92147647 -66.25 379.6875 C-65.59 379.6875 -64.93 379.6875 -64.25 379.6875 C-64.75748779 378.65270508 -65.26497559 377.61791016 -65.7878418 376.55175781 C-74.48112558 358.81520141 -83.14980009 341.07806688 -91.39526367 323.12792969 C-95.71833649 313.75049091 -100.21823712 304.46545814 -104.75 295.1875 C-109.95755483 284.52483158 -115.09054836 273.83733219 -120.0625 263.0625 C-126.30797368 249.54581839 -126.30797368 249.54581839 -132.625 236.0625 C-133.0888208 235.06138184 -133.5526416 234.06026367 -134.03051758 233.02880859 C-136.7430081 227.31723208 -139.81408263 222.23935443 -143.52294922 217.12207031 C-168.67281323 181.66908135 -180.38151311 136.73650391 -180.625 93.75 C-180.63294586 93.01400574 -180.64089172 92.27801147 -180.64907837 91.51971436 C-180.90981086 60.12752279 -168.81799372 32.334512 -147 10 C-107.68856337 -28.74638518 -44.4091242 -32.11474829 0 0 Z M-132.25 14.6875 C-132.90226562 15.18765625 -133.55453125 15.6878125 -134.2265625 16.203125 C-148.04092033 27.17891615 -157.75203429 44.17240793 -163.25 60.6875 C-163.66378906 61.8528125 -164.07757813 63.018125 -164.50390625 64.21875 C-171.20028335 86.80444002 -168.20047121 114.08292439 -163.25 136.6875 C-163.06808105 137.5326416 -162.88616211 138.3777832 -162.69873047 139.24853516 C-158.53208013 157.99659989 -151.32792921 175.8057369 -142.25 192.6875 C-141.73832275 193.65864746 -141.73832275 193.65864746 -141.21630859 194.64941406 C-133.43941314 209.3628511 -123.93429545 222.93462855 -113.25 235.6875 C-112.03570312 237.17830078 -112.03570312 237.17830078 -110.796875 238.69921875 C-98.73234124 253.31357406 -85.24276313 267.0817276 -70.25 278.6875 C-68.39269596 280.26715191 -66.53872867 281.85073257 -64.6875 283.4375 C-43.08911961 301.84559871 -43.08911961 301.84559871 -18.25 314.6875 C-20.02938015 310.51119013 -22.86628747 307.18282701 -25.625 303.625 C-58.25171691 260.66837952 -78.32550648 209.01379545 -87 156 C-87.19883789 154.79045654 -87.39767578 153.58091309 -87.60253906 152.3347168 C-90.38001732 134.48477396 -91.60455746 116.75481703 -91.56567383 98.6940918 C-91.56249812 95.62317834 -91.58615966 92.55321864 -91.61132812 89.48242188 C-91.66543298 72.88268714 -90.27300707 56.62804931 -85.375 40.6875 C-85.11380371 39.8114209 -84.85260742 38.9353418 -84.58349609 38.03271484 C-80.22397341 23.71766623 -74.20898602 7.9339747 -63.5 -2.89453125 C-62.02957339 -4.24750079 -62.02957339 -4.24750079 -62.25 -6.3125 C-61.26 -6.6425 -60.27 -6.9725 -59.25 -7.3125 C-59.25 -7.6425 -59.25 -7.9725 -59.25 -8.3125 C-85.84577361 -11.95358805 -111.84836393 -2.01045445 -132.25 14.6875 Z M94.75 -8.3125 C96.0184375 -6.889375 96.0184375 -6.889375 97.3125 -5.4375 C118.42011354 19.42697216 126.02233767 51.29204465 127.3125 83.25 C127.35568359 84.25869141 127.39886719 85.26738281 127.44335938 86.30664062 C127.54829618 88.76682575 127.65045701 91.22709175 127.75 93.6875 C128.86632812 93.36394531 129.98265625 93.04039063 131.1328125 92.70703125 C135.98645997 91.49949159 140.64180448 91.34751304 145.625 91.375 C146.50760498 91.37193848 147.39020996 91.36887695 148.29956055 91.36572266 C153.0954527 91.41802053 157.0431386 91.80071505 161.5625 93.5625 C163.72010408 94.45371748 163.72010408 94.45371748 165.75 94.6875 C167.80418588 93.54162761 169.17446058 92.13689715 170.81640625 90.45703125 C179.52223239 82.48988127 191.68344192 82.82275793 202.75 82.6875 C201.19255254 55.51790056 187.33576631 32.3519518 167.58935547 14.26806641 C162.71672502 10.0809932 157.33170008 6.83248584 151.75 3.6875 C150.29013672 2.84445313 150.29013672 2.84445313 148.80078125 1.984375 C132.75439497 -6.68461404 112.87281708 -11.17727521 94.75 -8.3125 Z M-49.84375 0.06640625 C-70.0962119 22.12712368 -79.30452418 52.9330967 -79.453125 82.546875 C-79.46013931 83.48087631 -79.46715363 84.41487762 -79.47438049 85.37718201 C-79.49187436 88.39733715 -79.49823874 91.41729595 -79.5 94.4375 C-79.50067474 95.47049225 -79.50134949 96.5034845 -79.50204468 97.56777954 C-79.48486892 114.12761689 -78.83954025 130.30139455 -76.25 146.6875 C-76.07839355 147.78932617 -75.90678711 148.89115234 -75.72998047 150.02636719 C-66.14787799 209.71113418 -42.29123983 270.2029817 -0.25 314.6875 C0.96427657 316.07816622 2.17285952 317.47382963 3.375 318.875 C3.93574219 319.50792969 4.49648437 320.14085937 5.07421875 320.79296875 C6.22196201 322.09053398 7.3487649 323.40683999 8.45703125 324.73828125 C11.26350165 327.89951991 13.41002842 330.14439098 17.75 330.5625 C22.96415756 330.06017268 25.56639806 326.50928942 28.75 322.6875 C29.52730469 321.81931641 29.52730469 321.81931641 30.3203125 320.93359375 C31.45756901 319.66173442 32.58003383 318.37656973 33.69140625 317.08203125 C35.24581332 315.27396382 36.81954755 313.48248692 38.40234375 311.69921875 C63.51605487 283.23364411 89.86293378 244.59583211 96.75 206.6875 C95.60724609 206.25050781 95.60724609 206.25050781 94.44140625 205.8046875 C88.38344559 203.39965443 82.98803558 200.82427175 77.6875 197.01953125 C75.79091376 195.62515383 75.79091376 195.62515383 73.625 194.76171875 C71.23630904 193.39319788 70.82774283 192.19020824 69.75 189.6875 C68.77830735 188.1203411 67.79857518 186.55814933 66.8125 185 C60.2691505 174.06781852 58.39788625 162.42826864 60.8203125 149.8515625 C63.1454931 141.93813271 66.80168056 134.45239109 72.75 128.6875 C72.75 128.0275 72.75 127.3675 72.75 126.6875 C73.31332031 126.41808594 73.87664062 126.14867187 74.45703125 125.87109375 C76.87885818 124.62098547 79.13486906 123.20722055 81.4375 121.75 C87.59594787 118.04770729 93.15359867 115.69690848 100.375 115.5625 C103.47960223 115.32368444 104.49247212 114.93704252 106.765625 112.734375 C107.972037 111.16299803 109.13465735 109.55663136 110.2421875 107.9140625 C111.75 105.6875 111.75 105.6875 113.31933594 104.42138672 C115.40495486 101.89373048 115.13826055 99.96180555 115.1484375 96.71875 C115.15456055 95.51686035 115.16068359 94.3149707 115.16699219 93.07666016 C115.15313477 91.7932373 115.13927734 90.50981445 115.125 89.1875 C115.11629883 87.87700684 115.10759766 86.56651367 115.09863281 85.21630859 C114.94250561 74.80057644 114.03105267 64.84633971 111.75 54.6875 C111.5331958 53.70402588 111.5331958 53.70402588 111.31201172 52.70068359 C107.10749119 34.21103686 99.98671087 13.93167329 85.75 0.6875 C85.08613281 0.04425781 84.42226563 -0.59898438 83.73828125 -1.26171875 C81.41733983 -3.18264154 79.61755121 -4.37606531 76.75 -5.3125 C72.34409088 -4.86815405 68.72699133 -3.19305561 64.75 -1.3125 C63.60917969 -0.8071875 62.46835938 -0.301875 61.29296875 0.21875 C52.9798553 4.10492432 45.85083656 8.9031689 38.75 14.6875 C37.65751953 15.54988281 37.65751953 15.54988281 36.54296875 16.4296875 C31.56614118 20.53287078 27.7750612 25.26447456 23.92578125 30.4296875 C21.46993808 32.97812081 20.24205502 33.5097435 16.75 33.6875 C12.29934367 31.93066198 9.76685231 28.53610807 6.7421875 24.9921875 C-3.91315193 12.66542228 -16.33688184 4.18028614 -31.25 -2.3125 C-32.18714844 -2.745625 -33.12429687 -3.17875 -34.08984375 -3.625 C-41.12028872 -6.30702108 -44.42788173 -5.01525496 -49.84375 0.06640625 Z M177.75 100.6875 C177.75 104.37345042 178.42407085 104.65799347 180.9375 107.1875 C187.91987691 114.83553962 190.89611487 123.68707573 190.875 133.875 C190.87886719 135.75251953 190.87886719 135.75251953 190.8828125 137.66796875 C190.75 140.6875 190.75 140.6875 189.75 141.6875 C187.07941149 141.82865161 184.42567762 141.72997107 181.75 141.6875 C180.24284332 138.23100431 179.40349594 135.10143566 178.875 131.375 C177.30372443 122.37038229 173.17980687 114.792434 165.796875 109.2109375 C157.15886862 103.57315471 147.91192979 102.20631952 137.75 103.6875 C131.07318945 105.89342967 125.18953427 109.17635401 120.75 114.6875 C120.42 115.3475 120.09 116.0075 119.75 116.6875 C121.10931641 117.28884766 121.10931641 117.28884766 122.49609375 117.90234375 C130.3402707 121.50540552 137.82843045 125.2670923 142.75 132.6875 C143.52401956 135.78880812 143.32498089 137.46760703 142.75 140.6875 C141.75 141.6875 141.75 141.6875 138 142.125 C135.79296875 142.09765625 135.79296875 142.09765625 133.75 141.6875 C131.3125 139.0625 131.3125 139.0625 130.15625 137.4140625 C126.0913666 132.423289 119.86439066 129.31303313 113.75 127.6875 C104.88925455 126.89783771 96.46628937 126.73917816 88.75 131.6875 C88.05519531 132.1 87.36039062 132.5125 86.64453125 132.9375 C79.67398616 137.54093691 75.28426144 144.79673141 72.75 152.6875 C71.94187129 161.52053473 71.78973468 170.00907071 76.75 177.6875 C77.42095703 178.74710938 77.42095703 178.74710938 78.10546875 179.828125 C83.02165353 186.94538982 89.32154989 191.55517416 97.75 193.6875 C102.98669702 194.44063722 108.01873162 194.81425198 113.31965637 194.82121277 C114.39632546 194.8246111 114.39632546 194.8246111 115.49474543 194.82807809 C117.87647797 194.83435879 120.25815273 194.83359258 122.63989258 194.83276367 C124.35719373 194.83575886 126.07449422 194.83916222 127.79179382 194.84294128 C132.44067436 194.85174864 137.08953647 194.85411802 141.73842454 194.85475707 C144.64719409 194.8554694 147.55595901 194.85760719 150.4647274 194.86025429 C160.6246813 194.86949676 170.78462211 194.87359053 180.94458008 194.87280273 C190.39555545 194.87220217 199.8464737 194.88275265 209.29743463 194.8985464 C217.42848884 194.91164727 225.55952445 194.91698557 233.69058913 194.91634732 C238.53941623 194.9160931 243.38819252 194.91890274 248.23700905 194.92952538 C252.79987397 194.93924936 257.36263997 194.9392562 261.9255085 194.93200874 C263.59311824 194.93096825 265.26073428 194.93329374 266.92833328 194.9393692 C281.93701159 194.99047633 295.35456014 194.57647587 306.75 183.6875 C313.85980015 175.44659528 315.47506675 167.17863066 315.09765625 156.53515625 C314.64168988 151.48878692 313.47367108 147.92149336 310.75 143.6875 C310.32589844 142.99269531 309.90179688 142.29789063 309.46484375 141.58203125 C304.88806858 134.78698622 297.89203442 129.31590688 289.75 127.6875 C286.07628877 127.54463345 282.42401247 127.569827 278.75 127.6875 C278.76160156 128.61433594 278.77320313 129.54117188 278.78515625 130.49609375 C278.79417969 131.69363281 278.80320312 132.89117187 278.8125 134.125 C278.82410156 135.31996094 278.83570313 136.51492187 278.84765625 137.74609375 C278.75 140.6875 278.75 140.6875 277.75 141.6875 C275.07941149 141.82865161 272.42567762 141.72997107 269.75 141.6875 C268.22468571 138.41896937 267.53364828 135.40905847 267 131.875 C265.47318355 123.97078866 260.52056176 118.42633703 254.015625 113.8828125 C247.75610648 110.58037686 240.66953571 109.89588463 233.875 111.80078125 C228.31446346 114.12107866 224.35085072 117.77017333 220.8125 122.5625 C219.00929139 124.83524215 218.26721863 125.59121383 215.37890625 126.12890625 C213.12628664 126.12539202 210.97942372 125.99961932 208.75 125.6875 C208.17761649 120.34525389 208.36750097 117.63879945 211.6875 113.3125 C212.70678095 112.10285688 213.7273438 110.89429097 214.75 109.6875 C215.08 109.0275 215.41 108.3675 215.75 107.6875 C210.42971344 100.83763106 205.7592954 96.96259337 197.3125 94.8125 C189.7678708 94.54777617 184.04404908 96.67002186 177.75 100.6875 Z M110.75 206.6875 C107.45 215.5975 104.15 224.5075 100.75 233.6875 C88.87938343 260.83982987 75.10405018 286.25828346 56.4453125 309.38671875 C54.55226699 311.47953276 54.55226699 311.47953276 54.75 313.6875 C59.12130734 312.1251316 62.95934181 309.89313181 66.875 307.4375 C67.56295654 307.00638916 68.25091309 306.57527832 68.9597168 306.13110352 C84.6543558 296.12574923 99.43863363 284.5745985 113.16796875 272.0234375 C115.27428031 270.11787878 117.40559891 268.25495668 119.5546875 266.3984375 C130.22534581 257.07674207 140.05076402 246.86563331 148.75 235.6875 C149.72263328 234.49004881 150.698086 233.29488427 151.67578125 232.1015625 C162.70910863 220.33286178 162.70910863 220.33286178 168.75 206.6875 C149.61 206.6875 130.47 206.6875 110.75 206.6875 Z M-102.25 267.6875 C-100.94164011 271.85613053 -99.37316371 275.71202445 -97.44921875 279.6328125 C-96.61233521 281.34911865 -96.61233521 281.34911865 -95.75854492 283.10009766 C-95.31434708 284.00541229 -95.31434708 284.00541229 -94.86117554 284.92901611 C-93.26300575 288.18787372 -91.67782723 291.45302386 -90.09375 294.71875 C-89.76896164 295.38814606 -89.44417328 296.05754211 -89.10954285 296.7472229 C-85.97151857 303.23191421 -82.94756369 309.76753857 -79.9375 316.3125 C-74.1845752 328.80171717 -68.20382014 341.17299612 -62.16088867 353.52392578 C-61.81345612 354.23506027 -61.46602356 354.94619476 -61.10806274 355.67887878 C-60.46999303 356.98432097 -59.83072739 358.2891799 -59.18978882 359.59321594 C-56.10049039 365.91228284 -53.20053177 372.29468116 -50.25 378.6875 C-39.03 378.6875 -27.81 378.6875 -16.25 378.6875 C-17.06802664 374.59736679 -18.0427332 371.40817477 -19.5859375 367.5859375 C-20.06675781 366.38646484 -20.54757813 365.18699219 -21.04296875 363.95117188 C-22.11365694 361.31137169 -23.19400904 358.67564751 -24.27734375 356.04101562 C-24.83908601 354.67079595 -25.40027959 353.30035122 -25.9609375 351.9296875 C-26.24233582 351.2424762 -26.52373413 350.55526489 -26.81365967 349.847229 C-28.63812086 345.341052 -30.25760166 340.80934487 -31.7890625 336.1953125 C-37.2577823 320.26065104 -43.19601463 312.38842382 -57.86279297 304.09472656 C-61.35571101 302.03569818 -64.48037454 299.61196391 -67.625 297.0625 C-68.17833008 296.62091553 -68.73166016 296.17933105 -69.30175781 295.72436523 C-78.95019465 287.97288508 -88.24894237 279.83471003 -97.25219727 271.34399414 C-99.42296416 268.82173301 -99.42296416 268.82173301 -102.25 267.6875 Z M136.75 267.6875 C136.3375 268.11160156 135.925 268.53570312 135.5 268.97265625 C131.09657937 273.44488033 126.5099865 277.60087744 121.75 281.6875 C120.72993992 282.58273112 119.71045192 283.47861434 118.69140625 284.375 C112.58141814 289.72002079 106.36383143 294.86968351 99.875 299.75 C99.30072266 300.1833667 98.72644531 300.6167334 98.13476562 301.06323242 C97.53599609 301.50771729 96.93722656 301.95220215 96.3203125 302.41015625 C95.65161133 302.92408936 94.98291016 303.43802246 94.29394531 303.9675293 C92.23297391 305.36095958 90.36384482 306.37493773 88.13574219 307.43286133 C73.08353489 315.22115022 68.97491294 330.16251834 63.52587891 345.13995361 C62.22343595 348.6820206 60.85802102 352.19966463 59.5 355.72070312 C54.30213235 366.99183189 54.30213235 366.99183189 51.75 378.6875 C62.97 378.6875 74.19 378.6875 85.75 378.6875 C96.59722313 356.38777341 96.59722313 356.38777341 107.125 333.9375 C112.8294482 321.54903378 118.75889151 309.27749457 124.75146484 297.02636719 C126.42790424 293.59826323 128.09733285 290.16685011 129.75964355 286.73187256 C130.43738792 285.33281872 131.11726008 283.93479421 131.7989502 282.53765869 C132.81419648 280.4520885 133.81857982 278.36161934 134.8203125 276.26953125 C135.13128876 275.63512619 135.44226501 275.00072113 135.76266479 274.34709167 C136.48629652 272.82144027 137.1266328 271.25678915 137.75 269.6875 C137.255 268.6975 137.255 268.6975 136.75 267.6875 Z M-21.25 328.6875 C-19.22670267 334.98534427 -16.95629691 341.14355584 -14.4921875 347.28125 C-14.1436673 348.1539856 -13.79514709 349.02672119 -13.43606567 349.92590332 C-12.70620572 351.75156618 -11.97506069 353.57671578 -11.24267578 355.40136719 C-10.11752236 358.20614019 -8.99797508 361.01310708 -7.87890625 363.8203125 C-7.16699878 365.59909129 -6.4547709 367.37774188 -5.7421875 369.15625 C-5.40677948 369.9978064 -5.07137146 370.83936279 -4.72579956 371.7064209 C-3.44046028 375.47162506 -3.44046028 375.47162506 -1.25 378.6875 C1.5616338 378.77611992 4.34858255 378.80272355 7.16015625 378.78515625 C8.42320839 378.78303383 8.42320839 378.78303383 9.71177673 378.78086853 C12.41205335 378.77525263 15.11224828 378.76269748 17.8125 378.75 C19.63867068 378.74498705 21.46484266 378.74042379 23.29101562 378.73632812 C27.77737542 378.72527804 32.26367384 378.70800279 36.75 378.6875 C39.69458765 372.96712533 42.27760474 367.19463579 44.67578125 361.2265625 C45.02762985 360.35478363 45.37947845 359.48300476 45.74198914 358.58480835 C46.47736148 356.75860793 47.21088459 354.93166185 47.94262695 353.10400391 C49.06892609 350.2964817 50.20711793 347.4939646 51.34570312 344.69140625 C52.06062694 342.91175186 52.77484542 341.13181392 53.48828125 339.3515625 C54.00217155 338.09226425 54.00217155 338.09226425 54.52644348 336.80752563 C55.32704668 334.79009525 56.04679058 332.74090871 56.75 330.6875 C56.255 329.6975 56.255 329.6975 55.75 328.6875 C54.87859375 329.21859375 54.0071875 329.7496875 53.109375 330.296875 C36.8755865 339.9995391 21.32959525 344.138543 2.5625 339.87890625 C-4.45850905 337.68484092 -10.80128058 334.17870327 -17.25 330.6875 C-18.58121126 330.01660596 -19.91404964 329.34890673 -21.25 328.6875 Z M-63.25 393.6875 C-64.08333333 396.6875 -64.08333333 396.6875 -63.25 399.6875 C-59.48399119 402.61128941 -56.60964302 403.06366307 -51.91186523 403.06845093 C-50.6332663 403.0769104 -49.35466736 403.08536987 -48.037323 403.09408569 C-46.6277453 403.08825328 -45.21816887 403.0821088 -43.80859375 403.07568359 C-42.31844702 403.07975039 -40.8283033 403.08509288 -39.33816528 403.09161377 C-35.29685689 403.10528039 -31.25577847 403.09999148 -27.21446609 403.09047651 C-22.98338454 403.08287652 -18.75232257 403.08992647 -14.52124023 403.09463501 C-7.41614246 403.10009157 -0.31113826 403.09290357 6.79394531 403.07861328 C15.0061407 403.06228693 23.21811264 403.06757551 31.43030262 403.0840925 C38.4835212 403.09771021 45.53667254 403.09962564 52.58990002 403.09177649 C56.80143585 403.08710153 61.01286668 403.08647022 65.22439575 403.09638596 C69.1840065 403.10505751 73.1433294 403.09903042 77.10290909 403.08170319 C78.55533495 403.07773933 80.00778508 403.07887069 81.46020126 403.08549118 C83.4440804 403.09369988 85.42801253 403.0815765 87.41186523 403.06845093 C89.07656105 403.06675431 89.07656105 403.06675431 90.77488708 403.06502342 C94.16405879 402.6349585 96.06023998 401.77572981 98.75 399.6875 C99.58333333 396.6875 99.58333333 396.6875 98.75 393.6875 C94.98399119 390.76371059 92.10964302 390.31133693 87.41186523 390.30654907 C86.1332663 390.2980896 84.85466736 390.28963013 83.537323 390.28091431 C82.1277453 390.28674672 80.71816887 390.2928912 79.30859375 390.29931641 C77.81844702 390.29524961 76.3283033 390.28990712 74.83816528 390.28338623 C70.79685689 390.26971961 66.75577847 390.27500852 62.71446609 390.28452349 C58.48338454 390.29212348 54.25232257 390.28507353 50.02124023 390.28036499 C42.91614246 390.27490843 35.81113826 390.28209643 28.70605469 390.29638672 C20.4938593 390.31271307 12.28188736 390.30742449 4.06969738 390.2909075 C-2.9835212 390.27728979 -10.03667254 390.27537436 -17.08990002 390.28322351 C-21.30143585 390.28789847 -25.51286668 390.28852978 -29.72439575 390.27861404 C-33.6840065 390.26994249 -37.6433294 390.27596958 -41.60290909 390.29329681 C-43.05533495 390.29726067 -44.50778508 390.29612931 -45.96020126 390.28950882 C-47.9440804 390.28130012 -49.92801253 390.2934235 -51.91186523 390.30654907 C-53.57656105 390.30824569 -53.57656105 390.30824569 -55.27488708 390.30997658 C-58.66405879 390.7400415 -60.56023998 391.59927019 -63.25 393.6875 Z M-48.25 414.6875 C-51.30947107 442.05408615 -51.30947107 442.05408615 -42.0625 470.1875 C-36.18218808 475.10922093 -27.94223652 474.98322952 -20.67211914 474.9621582 C-19.28753761 474.9698246 -19.28753761 474.9698246 -17.87498474 474.97764587 C-14.84497467 474.9914663 -11.81519396 474.99059092 -8.78515625 474.98828125 C-6.66580624 474.99217206 -4.546457 474.99650752 -2.42710876 475.00126648 C2.00687187 475.00871227 6.44077285 475.00844912 10.87475586 475.00317383 C16.54155677 474.99737862 22.20803089 475.01431963 27.87477779 475.0375185 C32.24925119 475.0522875 36.62364642 475.05312327 40.99814034 475.05000877 C43.08681447 475.0505203 45.17549318 475.05572617 47.26414299 475.06582069 C50.19054983 475.07823047 53.11632698 475.07136638 56.04272461 475.05981445 C57.32184219 475.07128006 57.32184219 475.07128006 58.62680054 475.08297729 C65.87676742 475.02008408 71.92197948 473.41573476 78.125 469.625 C89.65449287 456.72294846 83.75 424.60995634 83.75 414.6875 C40.19 414.6875 -3.37 414.6875 -48.25 414.6875 Z " fill="#000000" transform="translate(182.25,23.3125)"/>
<path d="M0 0 C2.1875 1.2890625 2.1875 1.2890625 4.1875 3.2890625 C7.99453797 2.92771652 10.95644829 1.55432517 14.3125 -0.2109375 C23.1195598 -4.81523624 33.56247868 -5.0995152 43.28125 -3.0625 C53.96614173 0.89361498 61.04483403 8.27439719 66.1875 18.2890625 C71.52234095 30.70728759 68.91334256 48.08526906 64.1875 60.2890625 C60.51553589 68.41464644 55.93467972 75.49931049 50.1875 82.2890625 C49.69121094 82.92972656 49.19492187 83.57039063 48.68359375 84.23046875 C40.12710007 94.84566768 27.95277298 102.65545114 16.1875 109.2890625 C14.764375 110.13984375 14.764375 110.13984375 13.3125 111.0078125 C7.89768114 113.22788823 3.89145069 112.94996645 -1.41796875 110.890625 C-2.62327025 110.25266106 -3.81716258 109.59277107 -5 108.9140625 C-5.96329224 108.37930298 -5.96329224 108.37930298 -6.94604492 107.83374023 C-13.74149604 103.94716038 -19.809352 99.29038137 -25.8125 94.2890625 C-27.15634766 93.19271484 -27.15634766 93.19271484 -28.52734375 92.07421875 C-41.85344617 80.71931176 -53.74727191 63.07408501 -55.8125 45.2890625 C-57.40159646 23.05529414 -57.40159646 23.05529414 -51.8125 14.2890625 C-51.338125 13.51691406 -50.86375 12.74476563 -50.375 11.94921875 C-38.92974328 -4.5858757 -17.5900832 -8.35528952 0 0 Z M-37.72265625 17.5859375 C-43.36231128 25.7454384 -43.63912277 33.65113655 -42.8125 43.2890625 C-38.98371833 63.22060595 -25.51480232 79.15868511 -9.16064453 90.42724609 C-1.14559432 96.06872791 -1.14559432 96.06872791 8.1875 98.2890625 C16.41305087 94.97412055 23.4757365 88.97004906 30.1875 83.2890625 C30.81269531 82.79792969 31.43789063 82.30679688 32.08203125 81.80078125 C39.81556123 75.60348296 45.12404829 67.9350703 49.5625 59.1640625 C50.06317993 58.17913818 50.06317993 58.17913818 50.57397461 57.17431641 C55.49185364 47.04518012 57.38132529 35.24805658 54.34765625 24.2421875 C51.65580479 18.26029537 47.79604529 14.58951858 42.1875 11.2890625 C41.58421875 10.91652344 40.9809375 10.54398437 40.359375 10.16015625 C34.70448885 7.8920994 27.18298684 8.2819219 21.48046875 10.19921875 C17.72157974 12.19072553 14.87835191 14.486431 12 17.6015625 C9.1875 20.2890625 9.1875 20.2890625 6.25 21.1015625 C2.28206552 20.04884519 0.76127623 18.05369739 -1.98828125 15.11328125 C-6.91557896 10.18598354 -11.8005993 8.99982689 -18.6875 8.6640625 C-26.77729269 8.9325674 -32.50374984 11.31044268 -37.72265625 17.5859375 Z " fill="#000000" transform="translate(417.8125,309.7109375)"/>
</svg>
